G75*
%MOIN*%
%OFA0B0*%
%FSLAX24Y24*%
%IPPOS*%
%LPD*%
%AMOC8*
5,1,8,0,0,1.08239X$1,22.5*
%
%ADD10R,0.0433X0.0394*%
%ADD11R,0.0315X0.0472*%
%ADD12R,0.0800X0.0260*%
%ADD13R,0.0472X0.0217*%
%ADD14R,0.1102X0.0787*%
%ADD15R,0.1575X0.0276*%
%ADD16R,0.1575X0.0472*%
%ADD17R,0.1600X0.1600*%
%ADD18R,0.2000X0.2000*%
%ADD19C,0.0740*%
%ADD20R,0.0394X0.0433*%
%ADD21OC8,0.0560*%
%ADD22C,0.0640*%
%ADD23C,0.1700*%
%ADD24R,0.0550X0.0137*%
%ADD25R,0.0315X0.0315*%
%ADD26R,0.0551X0.0394*%
%ADD27C,0.0283*%
%ADD28R,0.0480X0.0245*%
%ADD29C,0.0660*%
%ADD30C,0.1300*%
%ADD31R,0.0551X0.0630*%
%ADD32R,0.0209X0.0780*%
%ADD33R,0.0591X0.0118*%
%ADD34R,0.0118X0.0591*%
%ADD35R,0.0709X0.0551*%
%ADD36R,0.0827X0.2205*%
%ADD37R,0.2205X0.0827*%
%ADD38R,0.0118X0.0276*%
%ADD39R,0.0260X0.0800*%
%ADD40R,0.0800X0.0800*%
%ADD41C,0.0800*%
%ADD42R,0.0276X0.0118*%
%ADD43OC8,0.0740*%
%ADD44C,0.0080*%
%ADD45C,0.0240*%
%ADD46C,0.0160*%
%ADD47C,0.0060*%
%ADD48C,0.0397*%
%ADD49C,0.0594*%
%ADD50C,0.0200*%
%ADD51C,0.0300*%
%ADD52C,0.0400*%
%ADD53C,0.0515*%
D10*
X013881Y009495D03*
X013881Y010165D03*
X013881Y011120D03*
X013881Y011790D03*
X018006Y010415D03*
X018756Y010415D03*
X018756Y009745D03*
X018006Y009745D03*
X024421Y011830D03*
X025091Y011830D03*
X025091Y013830D03*
X024421Y013830D03*
X036506Y015995D03*
X036506Y016665D03*
X038006Y016665D03*
X038006Y015995D03*
X037466Y013580D03*
X036796Y013580D03*
X043131Y009790D03*
X043131Y009120D03*
X040131Y009165D03*
X040131Y008495D03*
X047171Y010955D03*
X047841Y010955D03*
X056496Y021946D03*
X057165Y021946D03*
X059681Y023629D03*
X059681Y024299D03*
X055506Y028120D03*
X055506Y028790D03*
X037256Y023665D03*
X037256Y022995D03*
X037256Y022415D03*
X037256Y021745D03*
X018216Y023205D03*
X017546Y023205D03*
D11*
X015985Y019580D03*
X015277Y019580D03*
D12*
X046259Y015535D03*
X046259Y015035D03*
X046259Y014535D03*
X046259Y014035D03*
X046259Y013535D03*
X046259Y013035D03*
X046259Y012535D03*
X046259Y012035D03*
X048679Y012035D03*
X048679Y012535D03*
X048679Y013035D03*
X048679Y013535D03*
X048679Y014035D03*
X048679Y014535D03*
X048679Y015035D03*
X048679Y015535D03*
D13*
X048018Y009954D03*
X048018Y009206D03*
X046994Y009206D03*
X046994Y009580D03*
X046994Y009954D03*
X009518Y021081D03*
X009518Y021455D03*
X009518Y021829D03*
X008494Y021829D03*
X008494Y021081D03*
D14*
X055235Y020436D03*
X063464Y021381D03*
X063464Y010397D03*
X055275Y010358D03*
D15*
X054527Y011027D03*
X054527Y011499D03*
X054527Y012011D03*
D16*
X054527Y012641D03*
X054527Y013625D03*
X054527Y014610D03*
X054527Y015594D03*
X054527Y016578D03*
X054527Y017562D03*
X054527Y018547D03*
X054527Y019531D03*
D17*
X005381Y015705D03*
D18*
X005381Y010705D03*
X005381Y020705D03*
D19*
X005500Y026080D03*
X006500Y026080D03*
X007500Y026080D03*
X008500Y026080D03*
X009500Y026080D03*
X010500Y026080D03*
X011500Y026080D03*
X012500Y026080D03*
X013500Y026080D03*
X015000Y026080D03*
X016000Y026080D03*
X017000Y026080D03*
X018000Y026080D03*
X019000Y026080D03*
X020000Y026080D03*
X021000Y026080D03*
X022000Y026080D03*
X033756Y021824D03*
X033756Y020824D03*
X033756Y019824D03*
X033756Y018824D03*
X033756Y017824D03*
X033756Y016824D03*
X033756Y015824D03*
X033756Y014824D03*
X033756Y012824D03*
X033756Y011824D03*
X033756Y010824D03*
X033756Y009824D03*
X033756Y008824D03*
X033756Y007824D03*
X022000Y007080D03*
X021000Y007080D03*
X020000Y007080D03*
X019000Y007080D03*
X018000Y007080D03*
X017000Y007080D03*
X015000Y007080D03*
X014000Y007080D03*
X013000Y007080D03*
X012000Y007080D03*
X011000Y007080D03*
X010000Y007080D03*
X009000Y007080D03*
X008000Y007080D03*
X004500Y026080D03*
X052756Y025324D03*
X052756Y024324D03*
X052756Y023324D03*
X052756Y022324D03*
X052756Y021324D03*
X052756Y020324D03*
X052756Y019324D03*
X052756Y018324D03*
X052756Y017324D03*
X052756Y016324D03*
X052756Y014824D03*
X052756Y013824D03*
X052756Y012824D03*
X052756Y011824D03*
X052756Y010824D03*
X052756Y009824D03*
X052756Y008824D03*
X052756Y007824D03*
X058218Y003640D03*
X059998Y003640D03*
X059998Y001080D03*
X058218Y001080D03*
X057506Y028080D03*
X057506Y029080D03*
D20*
X059537Y029630D03*
X060207Y029630D03*
X060207Y030755D03*
X059537Y030755D03*
X044938Y021627D03*
X044938Y020958D03*
X058256Y009540D03*
X058256Y008870D03*
X043131Y008040D03*
X043131Y007370D03*
X016716Y010205D03*
X016046Y010205D03*
X009006Y011495D03*
X009006Y012165D03*
X010796Y020205D03*
X011466Y020205D03*
X011466Y021080D03*
X010796Y021080D03*
D21*
X022881Y027830D03*
X023881Y027830D03*
X024881Y027830D03*
X025881Y027830D03*
X026881Y027830D03*
X027881Y027830D03*
X028881Y027830D03*
X029881Y027830D03*
X030881Y027830D03*
X031881Y027830D03*
X032881Y027830D03*
X033881Y027830D03*
X034881Y027830D03*
X035881Y027830D03*
X036881Y027830D03*
X036881Y031830D03*
X035881Y031830D03*
X034881Y031830D03*
X033881Y031830D03*
X032881Y031830D03*
X031881Y031830D03*
X030881Y031830D03*
X029881Y031830D03*
X028881Y031830D03*
X027881Y031830D03*
X026881Y031830D03*
X025881Y031830D03*
X024881Y031830D03*
X023881Y031830D03*
X022881Y031830D03*
X052692Y004507D03*
X055052Y004507D03*
X055052Y002547D03*
X052692Y002547D03*
D22*
X002631Y032330D03*
X001631Y032330D03*
X001631Y033330D03*
X002631Y033330D03*
X002631Y034330D03*
X001631Y034330D03*
D23*
X061442Y005614D03*
X063804Y005614D03*
X062623Y007464D03*
D24*
X049013Y020305D03*
X049013Y020561D03*
X049013Y020817D03*
X049013Y021073D03*
X049013Y021329D03*
X049013Y021585D03*
X049013Y021841D03*
X049013Y022097D03*
X049013Y022353D03*
X049013Y022609D03*
X049013Y022864D03*
X049013Y023120D03*
X049013Y023376D03*
X049013Y023632D03*
X046134Y023632D03*
X046134Y023376D03*
X046134Y023120D03*
X046134Y022864D03*
X046134Y022609D03*
X046134Y022353D03*
X046134Y022097D03*
X046134Y021841D03*
X046134Y021585D03*
X046134Y021329D03*
X046134Y021073D03*
X046134Y020817D03*
X046134Y020561D03*
X046134Y020305D03*
D25*
X060952Y029630D03*
X061542Y029630D03*
X061542Y030755D03*
X060952Y030755D03*
D26*
X058707Y025529D03*
X059573Y025155D03*
X058707Y024781D03*
X058073Y024279D03*
X058073Y023531D03*
X057207Y023905D03*
D27*
X058736Y022080D02*
X058736Y021930D01*
X058736Y022080D02*
X058808Y022080D01*
X058808Y021930D01*
X058736Y021930D01*
X059436Y021930D02*
X059436Y022080D01*
X059508Y022080D01*
X059508Y021930D01*
X059436Y021930D01*
X059556Y007466D02*
X059706Y007466D01*
X059706Y007394D01*
X059556Y007394D01*
X059556Y007466D01*
X059556Y006766D02*
X059706Y006766D01*
X059706Y006694D01*
X059556Y006694D01*
X059556Y006766D01*
X012070Y014630D02*
X012070Y014780D01*
X012142Y014780D01*
X012142Y014630D01*
X012070Y014630D01*
X011370Y014630D02*
X011370Y014780D01*
X011442Y014780D01*
X011442Y014630D01*
X011370Y014630D01*
X011442Y015380D02*
X011442Y015530D01*
X011442Y015380D02*
X011370Y015380D01*
X011370Y015530D01*
X011442Y015530D01*
X012142Y015530D02*
X012142Y015380D01*
X012070Y015380D01*
X012070Y015530D01*
X012142Y015530D01*
X012142Y016130D02*
X012142Y016280D01*
X012142Y016130D02*
X012070Y016130D01*
X012070Y016280D01*
X012142Y016280D01*
X012142Y016880D02*
X012142Y017030D01*
X012142Y016880D02*
X012070Y016880D01*
X012070Y017030D01*
X012142Y017030D01*
X012142Y017630D02*
X012142Y017780D01*
X012142Y017630D02*
X012070Y017630D01*
X012070Y017780D01*
X012142Y017780D01*
X011442Y017780D02*
X011442Y017630D01*
X011370Y017630D01*
X011370Y017780D01*
X011442Y017780D01*
X011442Y017030D02*
X011442Y016880D01*
X011370Y016880D01*
X011370Y017030D01*
X011442Y017030D01*
X011442Y016280D02*
X011442Y016130D01*
X011370Y016130D01*
X011370Y016280D01*
X011442Y016280D01*
D28*
X060365Y009579D03*
X060365Y009205D03*
X060365Y008831D03*
X061397Y008831D03*
X061397Y009205D03*
X061397Y009579D03*
D29*
X061092Y024513D03*
X061872Y024513D03*
X061872Y025497D03*
X061092Y025497D03*
D30*
X062942Y027375D03*
X062942Y022635D03*
D31*
X059382Y026696D03*
X058280Y026696D03*
X008432Y010330D03*
X007330Y010330D03*
D32*
X015756Y011986D03*
X016256Y011986D03*
X016756Y011986D03*
X017256Y011986D03*
X017756Y011986D03*
X018256Y011986D03*
X018756Y011986D03*
X019256Y011986D03*
X019756Y011986D03*
X020256Y011986D03*
X020256Y015674D03*
X019756Y015674D03*
X019256Y015674D03*
X018756Y015674D03*
X018256Y015674D03*
X017756Y015674D03*
X017256Y015674D03*
X016756Y015674D03*
X016256Y015674D03*
X015756Y015674D03*
D33*
X023981Y017968D03*
X023981Y018165D03*
X023981Y018361D03*
X023981Y018558D03*
X023981Y018755D03*
X023981Y018952D03*
X023981Y019149D03*
X023981Y019346D03*
X023981Y019543D03*
X023981Y019739D03*
X023981Y019936D03*
X023981Y020133D03*
X023981Y020330D03*
X023981Y020527D03*
X023981Y020724D03*
X023981Y020921D03*
X023981Y021117D03*
X023981Y021314D03*
X023981Y021511D03*
X023981Y021708D03*
X023981Y021905D03*
X023981Y022102D03*
X023981Y022299D03*
X023981Y022495D03*
X023981Y022692D03*
X030281Y022692D03*
X030281Y022495D03*
X030281Y022299D03*
X030281Y022102D03*
X030281Y021905D03*
X030281Y021708D03*
X030281Y021511D03*
X030281Y021314D03*
X030281Y021117D03*
X030281Y020921D03*
X030281Y020724D03*
X030281Y020527D03*
X030281Y020330D03*
X030281Y020133D03*
X030281Y019936D03*
X030281Y019739D03*
X030281Y019543D03*
X030281Y019346D03*
X030281Y019149D03*
X030281Y018952D03*
X030281Y018755D03*
X030281Y018558D03*
X030281Y018361D03*
X030281Y018165D03*
X030281Y017968D03*
D34*
X029493Y017180D03*
X029296Y017180D03*
X029099Y017180D03*
X028903Y017180D03*
X028706Y017180D03*
X028509Y017180D03*
X028312Y017180D03*
X028115Y017180D03*
X027918Y017180D03*
X027721Y017180D03*
X027525Y017180D03*
X027328Y017180D03*
X027131Y017180D03*
X026934Y017180D03*
X026737Y017180D03*
X026540Y017180D03*
X026344Y017180D03*
X026147Y017180D03*
X025950Y017180D03*
X025753Y017180D03*
X025556Y017180D03*
X025359Y017180D03*
X025162Y017180D03*
X024966Y017180D03*
X024769Y017180D03*
X024769Y023480D03*
X024966Y023480D03*
X025162Y023480D03*
X025359Y023480D03*
X025556Y023480D03*
X025753Y023480D03*
X025950Y023480D03*
X026147Y023480D03*
X026344Y023480D03*
X026540Y023480D03*
X026737Y023480D03*
X026934Y023480D03*
X027131Y023480D03*
X027328Y023480D03*
X027525Y023480D03*
X027721Y023480D03*
X027918Y023480D03*
X028115Y023480D03*
X028312Y023480D03*
X028509Y023480D03*
X028706Y023480D03*
X028903Y023480D03*
X029099Y023480D03*
X029296Y023480D03*
X029493Y023480D03*
D35*
X038256Y022374D03*
X038256Y021036D03*
D36*
X026419Y014728D03*
X026419Y010987D03*
D37*
X025730Y012858D03*
D38*
X015262Y010145D03*
X015006Y010145D03*
X014750Y010145D03*
X014750Y009515D03*
X015006Y009515D03*
X015262Y009515D03*
X041375Y008020D03*
X041631Y008020D03*
X041887Y008020D03*
X041887Y007390D03*
X041631Y007390D03*
X041375Y007390D03*
D39*
X019757Y027735D03*
X019257Y027735D03*
X018757Y027735D03*
X018257Y027735D03*
X017757Y027735D03*
X017257Y027735D03*
X016757Y027735D03*
X016257Y027735D03*
X016257Y030155D03*
X016757Y030155D03*
X017257Y030155D03*
X017757Y030155D03*
X018257Y030155D03*
X018757Y030155D03*
X019257Y030155D03*
X019757Y030155D03*
X011883Y030155D03*
X011383Y030155D03*
X010883Y030155D03*
X010383Y030155D03*
X009883Y030155D03*
X009383Y030155D03*
X008883Y030155D03*
X008383Y030155D03*
X008383Y027735D03*
X008883Y027735D03*
X009383Y027735D03*
X009883Y027735D03*
X010383Y027735D03*
X010883Y027735D03*
X011383Y027735D03*
X011883Y027735D03*
D40*
X006393Y001705D03*
X017416Y001705D03*
X028440Y001705D03*
X039464Y001705D03*
X037692Y036957D03*
X026668Y036957D03*
X015645Y036957D03*
X004621Y036957D03*
X048716Y036957D03*
X059739Y036957D03*
D41*
X058361Y036957D03*
X056983Y036957D03*
X055605Y036957D03*
X054227Y036957D03*
X052849Y036957D03*
X051471Y036957D03*
X050094Y036957D03*
X047338Y036957D03*
X045960Y036957D03*
X044582Y036957D03*
X043204Y036957D03*
X041826Y036957D03*
X040448Y036957D03*
X039070Y036957D03*
X036314Y036960D03*
X034936Y036960D03*
X033558Y036960D03*
X032180Y036960D03*
X030802Y036960D03*
X029424Y036960D03*
X028046Y036960D03*
X025290Y036957D03*
X023912Y036957D03*
X022534Y036957D03*
X021156Y036957D03*
X019779Y036957D03*
X018401Y036957D03*
X017023Y036957D03*
X014267Y036960D03*
X012889Y036960D03*
X011511Y036960D03*
X010133Y036960D03*
X008755Y036960D03*
X007377Y036960D03*
X005999Y036960D03*
X061117Y036957D03*
X062495Y036957D03*
X063873Y036957D03*
X049109Y001705D03*
X047731Y001705D03*
X046353Y001705D03*
X044975Y001705D03*
X043597Y001705D03*
X042219Y001705D03*
X040842Y001705D03*
X038086Y001702D03*
X036708Y001702D03*
X035330Y001702D03*
X033952Y001702D03*
X032574Y001702D03*
X031196Y001702D03*
X029818Y001702D03*
X027062Y001705D03*
X025684Y001705D03*
X024306Y001705D03*
X022928Y001705D03*
X021550Y001705D03*
X020172Y001705D03*
X018794Y001705D03*
X016038Y001702D03*
X014660Y001702D03*
X013282Y001702D03*
X011905Y001702D03*
X010527Y001702D03*
X009149Y001702D03*
X007771Y001702D03*
D42*
X036816Y014574D03*
X036816Y014830D03*
X036816Y015086D03*
X037446Y015086D03*
X037446Y014830D03*
X037446Y014574D03*
D43*
X054356Y031645D03*
X054356Y032645D03*
X055356Y032645D03*
X056356Y032645D03*
X056356Y031645D03*
X055356Y031645D03*
X057356Y031645D03*
X058356Y031645D03*
X058356Y032645D03*
X057356Y032645D03*
D44*
X057341Y032645D01*
X053701Y036285D01*
X053701Y038145D01*
X035381Y038145D01*
X034401Y037165D01*
X034401Y035825D01*
X031481Y032905D01*
X031481Y031725D01*
X030321Y030565D01*
X030321Y027685D01*
X030161Y027525D01*
X030161Y024185D01*
X029861Y023885D01*
X029861Y022105D01*
X030261Y022105D01*
X030281Y022102D01*
X030281Y022299D02*
X030281Y022305D01*
X031741Y022305D01*
X031741Y025605D01*
X032021Y025425D02*
X032061Y025465D01*
X032061Y026205D01*
X032021Y026245D01*
X032341Y025505D02*
X032341Y030085D01*
X032161Y030265D01*
X030801Y030265D01*
X030801Y029945D01*
X030481Y030425D02*
X031881Y031825D01*
X031881Y031830D01*
X031961Y030905D02*
X032881Y031825D01*
X032881Y031830D01*
X033881Y031830D02*
X033881Y031005D01*
X032661Y029785D01*
X032021Y029945D02*
X031421Y029345D01*
X031421Y023185D01*
X031301Y023065D01*
X030661Y023085D02*
X030661Y023705D01*
X029761Y024025D02*
X029761Y027365D01*
X029481Y027645D01*
X029481Y030185D01*
X030521Y031225D01*
X030481Y030425D02*
X030481Y027385D01*
X029321Y027365D02*
X029321Y031265D01*
X029881Y031825D01*
X029881Y031830D01*
X029901Y031865D01*
X029901Y032245D01*
X031981Y034325D01*
X031841Y034805D02*
X028901Y031865D01*
X028881Y031830D01*
X028881Y029305D01*
X028481Y028905D01*
X028481Y027425D01*
X028501Y027405D01*
X028321Y027685D02*
X028321Y029205D01*
X027481Y029665D02*
X028561Y030745D01*
X027881Y031825D02*
X027321Y031265D01*
X027321Y027685D01*
X026301Y026665D01*
X026301Y025545D01*
X026341Y025505D01*
X026341Y023485D01*
X026344Y023480D01*
X026540Y023480D02*
X026541Y023485D01*
X026541Y025545D01*
X026461Y025625D01*
X026461Y026105D01*
X027461Y027105D01*
X027781Y027345D02*
X027481Y027645D01*
X027481Y029665D01*
X024961Y030745D02*
X023481Y029265D01*
X023481Y027645D01*
X023861Y027265D01*
X024221Y027585D02*
X024481Y027845D01*
X024481Y029205D01*
X024221Y027585D02*
X024221Y024805D01*
X024061Y024645D01*
X023741Y024505D02*
X023741Y025065D01*
X023981Y025305D01*
X023981Y025885D01*
X023901Y025885D01*
X023981Y025885D02*
X023981Y026685D01*
X023321Y027345D01*
X023321Y031265D01*
X023881Y031825D01*
X023881Y031830D01*
X023901Y031865D01*
X023901Y035565D01*
X025281Y036945D01*
X025290Y036957D01*
X022881Y036605D02*
X022881Y031830D01*
X022861Y031805D01*
X022481Y031425D01*
X022481Y026305D01*
X022541Y026245D01*
X022541Y022105D01*
X021641Y021205D01*
X021641Y013745D01*
X021961Y013425D01*
X022181Y013185D02*
X022281Y013285D01*
X022281Y017705D01*
X021961Y018025D01*
X021961Y018305D01*
X022601Y018945D01*
X023981Y018945D01*
X023981Y018952D01*
X023981Y018755D02*
X024001Y018745D01*
X024561Y018745D01*
X024561Y017765D01*
X024281Y017485D01*
X024281Y016625D01*
X023701Y016045D01*
X023081Y016045D02*
X023081Y017065D01*
X023981Y017965D01*
X023981Y017968D01*
X023981Y018165D02*
X023981Y018165D01*
X022921Y018165D01*
X022601Y018545D02*
X022601Y015105D01*
X022761Y015105D01*
X022601Y015105D02*
X022601Y007425D01*
X022921Y007105D01*
X022921Y001705D01*
X022928Y001705D01*
X022701Y001185D02*
X029801Y001185D01*
X029801Y001685D01*
X029818Y001702D01*
X029841Y001725D01*
X029841Y006525D01*
X032141Y008825D01*
X033741Y008825D01*
X033756Y008824D01*
X033561Y008325D02*
X034261Y008325D01*
X034261Y010025D01*
X033961Y010325D01*
X033481Y010325D01*
X033481Y010405D01*
X032861Y011025D01*
X032861Y011925D01*
X033741Y012805D01*
X033756Y012824D01*
X033756Y011824D02*
X033641Y011665D01*
X034261Y011045D01*
X034261Y010725D01*
X036961Y010725D01*
X037141Y010905D01*
X037141Y012325D01*
X039021Y014205D01*
X039021Y016325D01*
X038741Y016605D01*
X038741Y025305D01*
X038121Y025925D01*
X037321Y025125D02*
X037321Y028885D01*
X036881Y029365D02*
X036881Y031830D01*
X036441Y031265D02*
X035881Y031825D01*
X035881Y031830D01*
X035901Y031865D01*
X036841Y032805D01*
X036841Y037785D01*
X036881Y037825D01*
X035881Y037505D02*
X035461Y037085D01*
X035461Y035645D01*
X033901Y034085D01*
X033901Y031865D01*
X033881Y031830D01*
X034281Y031845D02*
X034281Y034005D01*
X037161Y035505D02*
X038901Y033765D01*
X038901Y016685D01*
X039181Y016405D01*
X039181Y014125D01*
X037301Y012245D01*
X037301Y010825D01*
X037041Y010565D01*
X033761Y010565D01*
X033761Y010805D01*
X033756Y010824D01*
X033181Y011245D02*
X033741Y011805D01*
X033756Y011824D01*
X031881Y011685D02*
X030361Y011685D01*
X030361Y015905D01*
X030041Y016225D01*
X029721Y016945D02*
X029721Y012825D01*
X030041Y012505D01*
X029561Y012505D02*
X029561Y012325D01*
X030041Y011845D01*
X029561Y012505D02*
X029541Y012505D01*
X029561Y012505D02*
X029561Y015765D01*
X028521Y016805D01*
X028521Y017165D01*
X028509Y017180D01*
X028321Y017165D02*
X028312Y017180D01*
X028321Y017165D02*
X028321Y012645D01*
X032141Y008825D01*
X032101Y009325D02*
X028641Y012785D01*
X028641Y016225D01*
X027961Y016625D02*
X027721Y016865D01*
X027721Y017180D01*
X027721Y017180D01*
X027721Y017165D01*
X027901Y017185D02*
X027918Y017180D01*
X027901Y017185D02*
X027901Y018445D01*
X027461Y018445D01*
X026961Y018945D01*
X026961Y022845D01*
X027281Y022705D02*
X027281Y019085D01*
X027601Y019565D02*
X027601Y020245D01*
X028201Y020485D02*
X029701Y020485D01*
X030281Y020525D02*
X030281Y020527D01*
X030281Y020525D02*
X031381Y020525D01*
X031381Y021745D01*
X030961Y021425D02*
X030681Y021705D01*
X030281Y021705D01*
X030281Y021708D01*
X030281Y021905D02*
X030281Y021905D01*
X030861Y021905D01*
X030861Y021985D01*
X030981Y022505D02*
X030281Y022505D01*
X030281Y022495D01*
X030281Y022692D02*
X030281Y022705D01*
X030661Y023085D01*
X030981Y022505D02*
X030981Y025485D01*
X031101Y025605D01*
X032021Y025425D02*
X032021Y020425D01*
X031381Y019785D01*
X031381Y018965D01*
X030281Y018965D01*
X030281Y018952D01*
X030281Y018765D02*
X030281Y018755D01*
X030281Y018765D02*
X031641Y018765D01*
X032181Y018845D02*
X031461Y018125D01*
X031161Y017945D02*
X031161Y012005D01*
X031881Y011685D02*
X033741Y009825D01*
X033756Y009824D01*
X033561Y008325D02*
X031501Y006265D01*
X029521Y006065D02*
X027961Y007625D01*
X027961Y016625D01*
X028121Y017165D02*
X028115Y017180D01*
X028121Y017165D02*
X028121Y010745D01*
X030861Y008005D01*
X029521Y007465D02*
X029521Y007245D01*
X029521Y007465D02*
X028341Y008645D01*
X028421Y005545D02*
X023621Y010345D01*
X022881Y009005D02*
X022881Y014065D01*
X022921Y014105D01*
X023281Y014425D02*
X023281Y015045D01*
X022761Y015565D01*
X022761Y017425D01*
X022921Y017585D01*
X022441Y018005D02*
X022441Y007345D01*
X022501Y007285D01*
X022501Y005405D01*
X021181Y006885D02*
X021181Y003205D01*
X022401Y001985D01*
X022401Y001485D01*
X022701Y001185D01*
X021550Y001705D02*
X021541Y001705D01*
X021541Y002385D01*
X021221Y002705D01*
X021501Y003345D02*
X021501Y007285D01*
X021321Y007465D01*
X021321Y013905D01*
X021041Y014085D02*
X021001Y014045D01*
X021001Y013245D01*
X020501Y013205D02*
X020501Y011565D01*
X020401Y011465D01*
X019661Y011465D01*
X019661Y011305D01*
X019621Y010805D02*
X019341Y010525D01*
X019341Y007425D01*
X019001Y007085D01*
X019000Y007080D01*
X018501Y006565D02*
X019501Y006565D01*
X019501Y010225D01*
X020361Y011085D01*
X020361Y011145D01*
X021001Y010485D02*
X021001Y012485D01*
X021641Y013065D02*
X022181Y013065D01*
X022181Y008825D01*
X022021Y008665D01*
X022881Y009005D02*
X023081Y008805D01*
X023081Y002925D01*
X024301Y001705D01*
X024306Y001705D01*
X025681Y001705D02*
X025684Y001705D01*
X025681Y001705D02*
X023401Y003985D01*
X023401Y007405D01*
X021181Y006885D02*
X021001Y007065D01*
X021000Y007080D01*
X021001Y007105D01*
X021001Y009385D01*
X020361Y010185D02*
X020361Y007445D01*
X020001Y007085D01*
X020000Y007080D01*
X020501Y007285D02*
X020681Y007465D01*
X020681Y016805D01*
X020721Y016845D01*
X021041Y016985D02*
X021041Y014085D01*
X020501Y013205D02*
X019161Y014545D01*
X018361Y014225D02*
X017761Y013625D01*
X017761Y012025D01*
X017756Y011986D01*
X017741Y011985D01*
X017741Y011445D01*
X017601Y011305D01*
X018261Y011805D02*
X018261Y011985D01*
X018256Y011986D01*
X018261Y011805D02*
X019101Y010965D01*
X019101Y010085D01*
X018501Y010085D01*
X018401Y009985D01*
X018401Y009765D01*
X018021Y009765D01*
X018006Y009745D01*
X018741Y009745D02*
X018756Y009745D01*
X018741Y009745D02*
X016961Y007965D01*
X018000Y007080D02*
X018001Y007065D01*
X018501Y006565D01*
X016501Y006565D02*
X020161Y002905D01*
X020161Y001705D01*
X020172Y001705D01*
X020501Y002125D02*
X020701Y001925D01*
X020701Y001485D01*
X020401Y001185D01*
X017421Y001185D01*
X017421Y001705D01*
X017416Y001705D01*
X016721Y001005D02*
X033421Y001005D01*
X033421Y002125D01*
X038201Y006905D01*
X040141Y007405D02*
X040141Y008485D01*
X040131Y008495D01*
X040901Y007925D02*
X040981Y008005D01*
X041261Y008285D01*
X041621Y008285D01*
X041621Y008025D01*
X041631Y008020D01*
X041441Y007945D02*
X041441Y007825D01*
X041521Y007745D01*
X043101Y007745D01*
X043101Y008025D01*
X043131Y008040D01*
X043141Y008045D01*
X043141Y009105D01*
X043131Y009120D01*
X044321Y009205D02*
X044321Y000505D01*
X042219Y001705D02*
X040842Y001705D01*
X040841Y001705D01*
X040841Y001005D01*
X033421Y001005D01*
X031201Y001705D02*
X031196Y001702D01*
X031201Y001705D02*
X033761Y004265D01*
X033761Y007785D01*
X033756Y007824D01*
X033761Y007825D01*
X036301Y007825D01*
X040821Y012345D01*
X040821Y020805D01*
X043281Y023265D01*
X043581Y023645D02*
X046121Y023645D01*
X046134Y023632D01*
X046134Y023376D02*
X046121Y023365D01*
X045221Y023365D01*
X044941Y023085D01*
X044941Y021645D01*
X044938Y021627D01*
X044938Y020958D02*
X044921Y020905D01*
X044921Y009225D01*
X047141Y007005D01*
X047941Y005845D02*
X050401Y008305D01*
X050401Y013645D01*
X050561Y013805D01*
X050981Y014225D01*
X050981Y019145D01*
X052261Y019825D02*
X052261Y013625D01*
X052561Y013325D01*
X053621Y013325D01*
X054301Y012645D01*
X054521Y012645D01*
X054527Y012641D01*
X054161Y012745D01*
X053261Y011845D01*
X053261Y006685D01*
X053101Y006245D02*
X052021Y007325D01*
X051701Y007225D02*
X051701Y007465D01*
X052041Y007805D01*
X052741Y007805D01*
X052756Y007824D01*
X052741Y008785D02*
X052756Y008824D01*
X052741Y008825D01*
X051301Y010265D01*
X051301Y022405D01*
X051361Y022465D01*
X051641Y021825D02*
X051641Y021505D01*
X051641Y021825D02*
X052961Y021825D01*
X055281Y024145D01*
X055281Y027885D01*
X055501Y028105D01*
X055506Y028120D01*
X055506Y028790D02*
X055521Y028805D01*
X057501Y028805D01*
X057501Y029065D01*
X057506Y029080D01*
X055721Y029305D02*
X057861Y031445D01*
X057861Y032145D01*
X058341Y032625D01*
X058356Y032645D01*
X056356Y032645D02*
X056341Y032625D01*
X055861Y032145D01*
X055861Y030365D01*
X055441Y029945D01*
X054341Y030045D02*
X053901Y029605D01*
X054341Y030045D02*
X054341Y031625D01*
X054356Y031645D01*
X055121Y031405D02*
X055341Y031625D01*
X055356Y031645D01*
X055121Y031405D02*
X055121Y026765D01*
X053901Y025545D01*
X052756Y024324D02*
X052741Y024305D01*
X050241Y021805D01*
X050241Y011745D01*
X048541Y010045D01*
X048018Y009954D02*
X048001Y009965D01*
X048001Y010785D01*
X047841Y010945D01*
X047841Y010955D01*
X047861Y010985D01*
X047861Y011225D01*
X048661Y012025D01*
X048679Y012035D01*
X048701Y012065D01*
X048921Y012065D01*
X049661Y012805D01*
X049661Y014865D01*
X049921Y015125D01*
X049501Y014545D02*
X048681Y014545D01*
X048679Y014535D01*
X048661Y015025D02*
X048301Y015025D01*
X047541Y014265D01*
X048021Y014285D02*
X048021Y013545D01*
X048661Y013545D01*
X048679Y013535D01*
X048681Y014025D02*
X048679Y014035D01*
X048681Y014025D02*
X049341Y014025D01*
X049341Y013805D01*
X049341Y013305D02*
X049341Y012985D01*
X049161Y012805D01*
X049161Y012545D01*
X048681Y012545D01*
X048679Y012535D01*
X048661Y013025D02*
X048021Y013025D01*
X048021Y012785D01*
X048661Y013025D02*
X048679Y013035D01*
X049501Y014545D02*
X049501Y016685D01*
X049181Y016325D02*
X045261Y020245D01*
X045261Y022945D01*
X045581Y022605D02*
X045581Y020945D01*
X044938Y020958D02*
X044921Y020945D01*
X041421Y020945D01*
X041381Y022145D02*
X052041Y032805D01*
X050321Y030625D02*
X046401Y026705D01*
X049421Y026745D02*
X049421Y022485D01*
X049301Y022365D01*
X049021Y022365D01*
X049013Y022353D01*
X049021Y022105D02*
X049013Y022097D01*
X049021Y022105D02*
X049281Y022105D01*
X049581Y022405D01*
X049581Y023625D01*
X052661Y026705D01*
X049421Y026745D02*
X052941Y030265D01*
X060207Y030755D02*
X060221Y030765D01*
X060941Y030765D01*
X060952Y030755D01*
X061061Y030265D02*
X061541Y030745D01*
X061542Y030755D01*
X061542Y029630D02*
X061541Y029625D01*
X061101Y029185D01*
X060952Y029630D02*
X060941Y029645D01*
X060221Y029645D01*
X060207Y029630D01*
X058721Y025525D02*
X058707Y025529D01*
X058681Y025505D01*
X058681Y025145D01*
X058201Y025145D01*
X058721Y025525D02*
X059121Y025125D01*
X059121Y024865D01*
X059681Y024305D01*
X059681Y024299D01*
X060481Y023545D02*
X060481Y009685D01*
X060381Y009585D01*
X060365Y009579D01*
X060365Y009205D02*
X059861Y009205D01*
X059861Y022625D01*
X059141Y023105D02*
X058361Y023885D01*
X057221Y023885D01*
X057207Y023905D01*
X058073Y023531D02*
X058081Y023525D01*
X058821Y022785D01*
X059141Y023105D02*
X059141Y021625D01*
X059061Y021545D01*
X061021Y019585D02*
X061021Y008845D01*
X061381Y008845D01*
X061397Y008831D01*
X059641Y006725D02*
X059631Y006730D01*
X059641Y006725D02*
X059981Y006385D01*
X059981Y003645D01*
X059998Y003640D01*
X060001Y003605D01*
X060001Y001085D01*
X059998Y001080D01*
X055052Y002547D02*
X055041Y002565D01*
X053101Y004505D01*
X053101Y006245D01*
X051701Y007225D02*
X050321Y005845D01*
X049541Y005525D02*
X051541Y007525D01*
X051541Y007585D01*
X052741Y008785D01*
X047141Y005725D02*
X050301Y002565D01*
X052681Y002565D01*
X052692Y002547D01*
X044161Y007805D02*
X043001Y006645D01*
X040901Y006645D01*
X040901Y007925D01*
X041375Y008020D02*
X041381Y008005D01*
X041441Y007945D01*
X041375Y007390D02*
X041361Y007385D01*
X041221Y007245D01*
X041221Y006965D01*
X041701Y006965D02*
X041701Y007325D01*
X041641Y007385D01*
X041631Y007390D01*
X041887Y007390D02*
X041901Y007385D01*
X043121Y007385D01*
X043131Y007370D01*
X044161Y007805D02*
X044161Y015785D01*
X041141Y018805D01*
X040181Y018005D02*
X039701Y018485D01*
X039701Y028585D01*
X039881Y028765D01*
X039881Y029265D01*
X039541Y028925D02*
X039541Y014245D01*
X040181Y013605D01*
X039421Y013905D02*
X039341Y013985D01*
X039341Y028445D01*
X039221Y028565D01*
X040021Y027345D02*
X040501Y026865D01*
X040501Y012485D01*
X040021Y012005D01*
X038001Y014105D02*
X037481Y013585D01*
X037466Y013580D01*
X036796Y013580D02*
X036781Y013565D01*
X036781Y012865D01*
X036721Y012805D01*
X035921Y012805D02*
X035921Y014565D01*
X036801Y014565D01*
X036816Y014574D01*
X037081Y014845D02*
X037081Y017245D01*
X036421Y017905D01*
X036421Y018225D01*
X036401Y018245D01*
X036401Y021545D01*
X036301Y021645D01*
X035981Y021685D02*
X035981Y026685D01*
X036441Y027145D01*
X036441Y031265D01*
X035441Y031265D02*
X034881Y031825D01*
X034881Y031830D01*
X034281Y031845D02*
X035281Y030845D01*
X035281Y027645D01*
X034821Y027185D01*
X034821Y018965D01*
X034181Y018325D01*
X034981Y018345D02*
X034981Y025925D01*
X036281Y027225D01*
X036281Y029425D01*
X035761Y029945D01*
X034481Y030265D02*
X034481Y027845D01*
X033021Y026385D01*
X032701Y027065D02*
X033481Y027845D01*
X033481Y029725D01*
X034661Y030905D01*
X035441Y031265D02*
X035441Y026845D01*
X035141Y026545D01*
X034501Y025925D02*
X034501Y025665D01*
X032341Y023505D01*
X032341Y018545D01*
X032141Y018345D01*
X032181Y018845D02*
X032181Y025345D01*
X032341Y025505D01*
X033021Y024645D02*
X034181Y025805D01*
X034181Y027025D01*
X032701Y027065D02*
X032701Y024525D01*
X032501Y024325D01*
X034181Y022945D02*
X033101Y021865D01*
X033561Y021325D02*
X034501Y021325D01*
X034501Y021645D01*
X035661Y021825D02*
X035661Y022585D01*
X035301Y022945D01*
X035981Y021685D02*
X035301Y021005D01*
X033561Y021325D02*
X033261Y021025D01*
X033261Y020545D01*
X032661Y019945D01*
X031701Y020345D02*
X031701Y020585D01*
X031701Y020345D02*
X030281Y020345D01*
X030281Y020330D01*
X030281Y019745D02*
X030281Y019739D01*
X030281Y019745D02*
X031061Y019745D01*
X030281Y019149D02*
X030261Y019145D01*
X029021Y019145D01*
X029021Y018125D01*
X028701Y017765D02*
X028701Y017185D01*
X028706Y017180D01*
X029493Y017180D02*
X029501Y017165D01*
X029721Y016945D01*
X029861Y017645D02*
X029861Y018545D01*
X030261Y018545D01*
X030281Y018558D01*
X030281Y018361D02*
X030281Y018345D01*
X031141Y018345D01*
X031141Y017965D01*
X031161Y017945D01*
X030841Y017805D02*
X030841Y018165D01*
X030281Y018165D01*
X030281Y018165D01*
X030281Y017968D02*
X030281Y017965D01*
X030521Y017725D01*
X030521Y015505D01*
X030841Y015185D01*
X031481Y016805D02*
X032661Y015625D01*
X032661Y015205D01*
X036821Y011045D01*
X038001Y014105D02*
X038001Y015085D01*
X037461Y015085D01*
X037446Y015086D01*
X037441Y014845D02*
X037446Y014830D01*
X037441Y014845D02*
X037081Y014845D01*
X036816Y015086D02*
X036801Y015105D01*
X036521Y015385D01*
X036521Y015985D01*
X036506Y015995D01*
X038001Y015985D02*
X038001Y015085D01*
X038001Y015985D02*
X038006Y015995D01*
X038261Y019845D02*
X038261Y021025D01*
X038256Y021036D01*
X037256Y021745D02*
X037261Y021765D01*
X037601Y022105D01*
X037601Y022665D01*
X037261Y023005D01*
X037256Y022995D01*
X037261Y023045D01*
X037801Y023585D01*
X037801Y027185D01*
X037641Y027345D01*
X037321Y025125D02*
X037481Y024965D01*
X029761Y024025D02*
X029701Y023965D01*
X029701Y023685D01*
X029501Y023485D01*
X029493Y023480D01*
X029301Y023465D02*
X029296Y023480D01*
X029301Y023465D02*
X029301Y023125D01*
X029541Y022885D01*
X029099Y023480D02*
X029101Y023485D01*
X029101Y023825D01*
X029441Y024165D01*
X028321Y024645D02*
X029441Y025765D01*
X027781Y025825D02*
X027781Y027345D01*
X028121Y027485D02*
X028321Y027685D01*
X028121Y027485D02*
X028121Y023485D01*
X028115Y023480D01*
X027918Y023480D02*
X027901Y023465D01*
X027901Y023085D01*
X027681Y022865D01*
X027681Y021365D01*
X027281Y022705D02*
X027721Y023145D01*
X027721Y023465D01*
X027721Y023480D01*
X027541Y023485D02*
X027525Y023480D01*
X027541Y023485D02*
X027541Y023945D01*
X027661Y024065D01*
X028321Y024645D02*
X028321Y023485D01*
X028312Y023480D01*
X027341Y023485D02*
X027328Y023480D01*
X027341Y023485D02*
X027341Y025385D01*
X027781Y025825D01*
X027461Y025745D02*
X027141Y025425D01*
X027141Y023485D01*
X027131Y023480D01*
X026941Y023485D02*
X026934Y023480D01*
X026941Y023485D02*
X026941Y025465D01*
X027101Y025625D01*
X027101Y026285D01*
X027461Y025965D02*
X027461Y025745D01*
X026781Y025765D02*
X026741Y025725D01*
X026741Y023485D01*
X026737Y023480D01*
X026147Y023480D02*
X026141Y023485D01*
X026141Y027265D01*
X026481Y027605D01*
X026481Y031425D01*
X026881Y031825D01*
X026881Y031830D01*
X026901Y031865D01*
X031341Y036305D01*
X031341Y037805D01*
X033261Y037805D01*
X033441Y037625D01*
X033441Y037065D01*
X033541Y036965D01*
X033558Y036960D01*
X033121Y037485D02*
X032701Y037065D01*
X032701Y036665D01*
X027901Y031865D01*
X027881Y031830D01*
X027881Y031825D01*
X026281Y031425D02*
X025881Y031825D01*
X025881Y031830D01*
X025901Y031865D01*
X025901Y032045D01*
X030801Y036945D01*
X030802Y036960D01*
X028046Y036960D02*
X028041Y036945D01*
X024901Y033805D01*
X024901Y031865D01*
X024881Y031830D01*
X024881Y031825D01*
X025441Y031265D01*
X025441Y027685D01*
X025741Y027385D01*
X025741Y023485D01*
X025753Y023480D01*
X025561Y023465D02*
X025561Y023025D01*
X026001Y022585D01*
X026001Y022025D01*
X025821Y021845D01*
X024401Y021845D01*
X024401Y022805D01*
X024161Y023045D01*
X024161Y024085D01*
X023741Y024505D01*
X023041Y024645D02*
X023041Y026605D01*
X022901Y026745D01*
X023361Y025825D02*
X023341Y025805D01*
X023341Y025305D01*
X023361Y025285D01*
X023361Y022305D01*
X023981Y022305D01*
X023981Y022299D01*
X023981Y022495D02*
X023981Y022505D01*
X023521Y022505D01*
X023521Y025305D01*
X023661Y025445D01*
X024861Y025765D02*
X025181Y025445D01*
X025181Y023925D01*
X025161Y023905D01*
X025161Y023485D01*
X025162Y023480D01*
X025161Y023445D01*
X025161Y023145D01*
X025201Y023105D01*
X025201Y023045D01*
X025301Y023045D01*
X025681Y022665D01*
X025681Y022165D01*
X026321Y022545D02*
X025961Y022905D01*
X025961Y023445D01*
X025950Y023480D01*
X025961Y023485D01*
X025961Y027325D01*
X026281Y027645D01*
X026281Y031425D01*
X025281Y030885D02*
X024901Y031265D01*
X025281Y030885D02*
X025281Y027605D01*
X025361Y027525D01*
X025361Y023485D01*
X025359Y023480D01*
X025556Y023480D02*
X025561Y023465D01*
X024781Y023485D02*
X024769Y023480D01*
X024781Y023485D02*
X024781Y023985D01*
X024861Y024065D01*
X023841Y023325D02*
X023841Y022845D01*
X023981Y022705D01*
X023981Y022692D01*
X023981Y021905D02*
X022801Y021905D01*
X023061Y021705D02*
X021801Y020445D01*
X021801Y014945D01*
X021961Y014785D01*
X023461Y015345D02*
X024441Y016325D01*
X024441Y016845D01*
X024761Y017165D01*
X024769Y017180D01*
X025541Y017185D02*
X025556Y017180D01*
X025541Y017185D02*
X025541Y018045D01*
X025201Y018385D01*
X025201Y019385D01*
X025381Y019565D01*
X026001Y019565D01*
X026001Y019245D01*
X024881Y019545D02*
X024881Y020165D01*
X024641Y020405D01*
X024561Y019865D02*
X024561Y019745D01*
X024001Y019745D01*
X023981Y019739D01*
X023981Y019925D02*
X023981Y019936D01*
X023981Y019925D02*
X022621Y019925D01*
X022621Y019545D01*
X022121Y019045D01*
X022121Y019025D01*
X022601Y018545D02*
X023981Y018545D01*
X023981Y018558D01*
X023981Y018361D02*
X024001Y018345D01*
X024401Y018345D01*
X024401Y017845D01*
X023401Y016845D01*
X022441Y018005D02*
X022281Y018165D01*
X023981Y019149D02*
X024001Y019165D01*
X024561Y019165D01*
X024561Y019225D01*
X024881Y019545D02*
X024001Y019545D01*
X023981Y019543D01*
X023981Y019346D02*
X023981Y019345D01*
X022881Y019345D01*
X022121Y019825D02*
X022121Y020525D01*
X023981Y020525D01*
X023981Y020527D01*
X023981Y020330D02*
X023981Y020325D01*
X022441Y020325D01*
X022441Y020205D01*
X021421Y020125D02*
X020321Y019025D01*
X019581Y018725D02*
X019581Y025805D01*
X019501Y025885D01*
X019501Y026285D01*
X019801Y026585D01*
X020981Y026585D01*
X020981Y026085D01*
X021000Y026080D01*
X021501Y026305D02*
X020601Y027205D01*
X019261Y027205D01*
X019261Y027725D01*
X019257Y027735D01*
X019001Y027985D02*
X019001Y028325D01*
X021141Y030465D01*
X021141Y036945D01*
X021156Y036957D01*
X020061Y036665D02*
X019781Y036945D01*
X019779Y036957D01*
X020061Y036665D02*
X020061Y029625D01*
X019441Y029625D01*
X018001Y028185D01*
X018001Y027985D01*
X017761Y027745D01*
X017757Y027735D01*
X017501Y027485D02*
X017501Y027285D01*
X018701Y026085D01*
X018981Y026085D01*
X019000Y026080D01*
X020000Y026080D02*
X020001Y026065D01*
X020001Y018025D01*
X021041Y016985D01*
X019581Y018725D02*
X019241Y018385D01*
X019261Y018865D02*
X018781Y019345D01*
X018781Y023285D01*
X016001Y026065D01*
X016000Y026080D01*
X015001Y026065D02*
X015000Y026080D01*
X015001Y026065D02*
X015001Y022945D01*
X017081Y020865D01*
X016761Y020865D02*
X016761Y020285D01*
X017221Y019825D01*
X017221Y017025D01*
X017241Y017005D01*
X017241Y015685D01*
X017256Y015674D01*
X017481Y015405D02*
X017481Y015225D01*
X016081Y013825D01*
X016001Y013225D02*
X017561Y014785D01*
X017981Y014525D02*
X017981Y016685D01*
X017721Y016945D01*
X017721Y020105D01*
X018461Y020845D01*
X019261Y021585D02*
X018941Y021905D01*
X018941Y025125D01*
X018001Y026065D01*
X018000Y026080D01*
X019041Y026745D02*
X018501Y027285D01*
X018501Y027485D01*
X018261Y027725D01*
X018257Y027735D01*
X018757Y027735D02*
X018761Y027745D01*
X019001Y027985D01*
X017501Y027485D02*
X017261Y027725D01*
X017257Y027735D01*
X016761Y027745D02*
X016757Y027735D01*
X016761Y027745D02*
X016761Y029465D01*
X017261Y029465D02*
X017261Y030145D01*
X017257Y030155D01*
X016757Y030155D02*
X016741Y030165D01*
X016521Y030385D01*
X016521Y033965D01*
X013421Y037065D01*
X013421Y037165D01*
X012941Y037645D01*
X006001Y037645D01*
X006001Y036965D01*
X005999Y036960D01*
X004641Y036945D02*
X004621Y036957D01*
X004641Y036945D02*
X006001Y035585D01*
X006001Y025885D01*
X006621Y025265D01*
X006501Y026065D02*
X006500Y026080D01*
X006521Y026105D01*
X007121Y026705D01*
X007121Y029045D01*
X007641Y029105D02*
X007661Y029125D01*
X007661Y034485D01*
X010121Y036945D01*
X010133Y036960D01*
X010981Y037065D02*
X010981Y037185D01*
X011281Y037485D01*
X012861Y037485D01*
X012861Y036985D01*
X012881Y036965D01*
X012889Y036960D01*
X012201Y036265D02*
X011521Y036945D01*
X011511Y036960D01*
X010981Y037065D02*
X009621Y035705D01*
X009621Y030385D01*
X009401Y030165D01*
X009383Y030155D01*
X009883Y030155D02*
X009901Y030145D01*
X010121Y029925D01*
X010121Y028785D01*
X009641Y028225D02*
X008941Y028925D01*
X008981Y028425D02*
X008981Y027825D01*
X008901Y027745D01*
X008883Y027735D01*
X009383Y027735D02*
X009461Y027405D01*
X009121Y027065D01*
X009401Y027505D02*
X009401Y027725D01*
X009383Y027735D01*
X009401Y027505D02*
X010001Y026905D01*
X010001Y025885D01*
X010561Y025325D01*
X010561Y021985D01*
X011461Y021085D01*
X011466Y021080D01*
X011801Y021545D02*
X011801Y020525D01*
X011481Y020205D01*
X011466Y020205D01*
X011501Y020185D01*
X013261Y018425D01*
X013261Y013265D01*
X014101Y012425D01*
X012761Y012105D02*
X012761Y014145D01*
X011021Y014145D02*
X009501Y012625D01*
X009501Y002045D01*
X009161Y001705D01*
X009149Y001702D01*
X008501Y002425D02*
X008501Y009625D01*
X009341Y010465D01*
X009341Y012945D01*
X010541Y014145D01*
X010401Y014465D02*
X009441Y013505D01*
X010401Y014465D02*
X010401Y018505D01*
X011201Y018185D02*
X011201Y017905D01*
X011401Y017705D01*
X011406Y017705D01*
X011721Y017805D02*
X011721Y017285D01*
X011421Y016985D01*
X011406Y016955D01*
X011421Y016945D01*
X011421Y016225D01*
X011406Y016205D01*
X011421Y016205D01*
X011421Y015465D01*
X011406Y015455D01*
X013981Y015265D02*
X013981Y019785D01*
X013801Y019965D01*
X013121Y019965D01*
X013121Y019905D01*
X012941Y019725D01*
X012201Y019725D01*
X012201Y024445D01*
X011001Y025645D01*
X011001Y027625D01*
X010901Y027725D01*
X010883Y027735D01*
X011383Y027735D02*
X011401Y027725D01*
X011621Y027505D01*
X011621Y026665D01*
X012001Y026285D01*
X012001Y025105D01*
X012501Y026065D02*
X012500Y026080D01*
X012501Y026065D02*
X012501Y020345D01*
X012801Y020045D01*
X013001Y021005D02*
X014461Y019545D01*
X014461Y016845D01*
X015521Y015785D01*
X015521Y015245D01*
X015621Y015145D01*
X016501Y015145D01*
X016521Y014985D01*
X016521Y015405D01*
X016261Y015665D01*
X016256Y015674D01*
X016021Y015945D02*
X016021Y016105D01*
X016101Y016185D01*
X016761Y016185D01*
X016761Y016985D01*
X016741Y017005D01*
X016741Y020065D01*
X015941Y020865D01*
X015941Y021205D01*
X013321Y023825D01*
X013801Y023825D02*
X016761Y020865D01*
X015141Y021545D02*
X014181Y020585D01*
X013001Y021005D02*
X013001Y028405D01*
X010901Y028405D01*
X010881Y028425D01*
X010881Y030145D01*
X010883Y030155D01*
X010861Y030185D01*
X010861Y030685D01*
X010701Y030845D01*
X010381Y030165D02*
X010383Y030155D01*
X010381Y030165D02*
X010381Y035505D01*
X012201Y036265D02*
X012201Y029325D01*
X011981Y029105D01*
X011661Y028965D02*
X012061Y028565D01*
X016241Y028565D01*
X016241Y027765D01*
X016257Y027735D01*
X016261Y027725D01*
X016261Y027065D01*
X016981Y027065D01*
X020321Y025425D02*
X020321Y023725D01*
X021101Y022945D01*
X021421Y023205D02*
X021421Y020125D01*
X023241Y021285D02*
X023241Y021505D01*
X023981Y021505D01*
X023981Y021511D01*
X023981Y021705D02*
X023061Y021705D01*
X023981Y021705D02*
X023981Y021708D01*
X023981Y021905D02*
X023981Y021905D01*
X022221Y022825D02*
X021801Y023245D01*
X021801Y023405D01*
X021441Y023765D01*
X020741Y023765D01*
X021501Y024025D02*
X021501Y026305D01*
X019261Y024925D02*
X019261Y023765D01*
X018201Y023525D02*
X018201Y023205D01*
X018216Y023205D01*
X018201Y023525D02*
X017281Y023525D01*
X016941Y023185D01*
X017546Y023205D02*
X017561Y023205D01*
X017561Y016645D01*
X016761Y016185D02*
X016761Y015685D01*
X016756Y015674D01*
X017481Y015405D02*
X017741Y015665D01*
X017756Y015674D01*
X016021Y015945D02*
X015761Y015685D01*
X015756Y015674D01*
X015201Y015645D02*
X014901Y015345D01*
X014901Y011285D01*
X014309Y010693D01*
X014821Y010845D02*
X015441Y011465D01*
X016001Y011465D01*
X016001Y013225D01*
X015756Y011986D02*
X015741Y011985D01*
X015741Y011845D01*
X015361Y011845D01*
X014821Y010845D02*
X014821Y010485D01*
X014941Y010365D01*
X014941Y010205D01*
X015001Y010145D01*
X015006Y010145D01*
X015081Y009825D02*
X014361Y009825D01*
X014741Y009505D02*
X013881Y009505D01*
X013881Y009495D01*
X014741Y009505D02*
X014750Y009515D01*
X015081Y009825D02*
X015221Y009685D01*
X015221Y009565D01*
X015261Y009525D01*
X015262Y009515D01*
X016261Y009385D02*
X016501Y009145D01*
X016501Y006565D01*
X020501Y007285D02*
X020501Y002125D01*
X019801Y002705D02*
X018801Y001705D01*
X018794Y001705D01*
X016721Y001005D02*
X016041Y001685D01*
X016038Y001702D01*
X011501Y002665D02*
X010541Y001705D01*
X010527Y001702D01*
X011501Y002665D02*
X011501Y007285D01*
X012761Y008545D01*
X012761Y009905D01*
X013081Y010225D01*
X013081Y017925D01*
X012481Y018525D01*
X012121Y018205D02*
X011721Y017805D01*
X009161Y018185D02*
X009001Y018185D01*
X009001Y012665D01*
X009021Y012665D01*
X009001Y012665D02*
X009001Y012165D01*
X009006Y012165D01*
X009821Y011865D02*
X009821Y008245D01*
X010981Y007085D01*
X011000Y007080D01*
X007821Y010045D02*
X007501Y009725D01*
X007501Y002805D01*
X006401Y001705D01*
X006393Y001705D01*
X007771Y001702D02*
X007781Y001705D01*
X008501Y002425D01*
X007821Y010045D02*
X007821Y020805D01*
X007801Y020825D01*
X007801Y021605D01*
X008494Y021081D02*
X008501Y021065D01*
X009001Y020565D01*
X009001Y018185D01*
X007481Y019865D02*
X007481Y025085D01*
X006501Y026065D01*
X007961Y026605D02*
X008481Y026085D01*
X008500Y026080D01*
X008281Y026745D02*
X008281Y027625D01*
X008381Y027725D01*
X008383Y027735D01*
X007961Y026605D02*
X007961Y030685D01*
X007981Y030685D01*
X007981Y031165D01*
X007981Y030685D02*
X008561Y030685D01*
X008641Y030605D01*
X008641Y030405D01*
X008881Y030165D01*
X008883Y030155D01*
X011383Y030155D02*
X011401Y030165D01*
X011621Y030385D01*
X011621Y030825D01*
X011883Y030155D02*
X011881Y030145D01*
X011661Y029925D01*
X011661Y029425D01*
X011621Y029425D01*
X011661Y029425D02*
X011661Y028965D01*
X009641Y028225D02*
X009641Y027985D01*
X009881Y027745D01*
X009883Y027735D01*
X006941Y023625D02*
X004501Y026065D01*
X004500Y026080D01*
X006941Y023625D02*
X006941Y013745D01*
X007341Y013665D02*
X007341Y010345D01*
X007330Y010330D01*
X007341Y013665D02*
X007501Y013825D01*
X013981Y015265D02*
X014581Y014665D01*
X018041Y017845D02*
X018041Y019245D01*
X018461Y019665D01*
X015985Y019580D02*
X015981Y019565D01*
X014781Y018365D01*
X010241Y022565D02*
X009521Y021845D01*
X009518Y021829D01*
X010241Y022565D02*
X010241Y022965D01*
X021421Y023205D02*
X021481Y023265D01*
X022221Y023305D02*
X021501Y024025D01*
X026321Y022545D02*
X026321Y017825D01*
X026281Y017785D01*
X026541Y017525D02*
X026781Y017765D01*
X026541Y017525D02*
X026541Y017185D01*
X026540Y017180D01*
X026344Y017180D02*
X026344Y014803D01*
X026064Y014803D01*
X025091Y013830D01*
X025394Y012858D02*
X025449Y012858D01*
X025730Y012858D01*
X026419Y014728D02*
X026344Y014803D01*
X027121Y014985D02*
X027121Y016165D01*
X027241Y016285D01*
X027241Y016725D01*
X027141Y016825D01*
X027141Y017165D01*
X027131Y017180D01*
X026941Y017165D02*
X026934Y017180D01*
X026741Y017165D02*
X026737Y017180D01*
X026741Y017165D02*
X026741Y016525D01*
X027121Y014985D02*
X027281Y014825D01*
X022181Y013185D02*
X022181Y013065D01*
X017201Y010205D02*
X017201Y010105D01*
X017201Y010205D02*
X016716Y010205D01*
X028421Y005545D02*
X028421Y001705D01*
X028440Y001705D01*
X040141Y007405D02*
X040581Y006965D01*
X044321Y009205D02*
X044741Y009205D01*
X044761Y009225D01*
X044761Y020485D01*
X044601Y020485D01*
X046041Y019925D02*
X049281Y019925D01*
X049021Y020305D02*
X049013Y020305D01*
X049021Y020305D02*
X049921Y020305D01*
X049921Y020245D01*
X049621Y020565D02*
X049621Y020625D01*
X049621Y020565D02*
X049021Y020565D01*
X049013Y020561D01*
X052101Y020665D02*
X052741Y021305D01*
X052756Y021324D01*
X052101Y020665D02*
X052101Y013265D01*
X051621Y012785D01*
X053441Y013745D02*
X054301Y014605D01*
X054521Y014605D01*
X054527Y014610D01*
X053261Y014405D02*
X053261Y015085D01*
X053121Y015225D01*
X053121Y015985D01*
X053601Y016465D01*
X053601Y016865D01*
X054281Y017545D01*
X054521Y017545D01*
X054527Y017562D01*
X053601Y017845D02*
X053601Y017245D01*
X053181Y016825D01*
X053601Y017845D02*
X054301Y018545D01*
X054521Y018545D01*
X054527Y018547D01*
X052741Y020305D02*
X052261Y019825D01*
X052741Y020305D02*
X052756Y020324D01*
X052756Y023324D02*
X052761Y023325D01*
X053261Y023825D01*
X053261Y036545D01*
X052861Y036945D01*
X052849Y036957D01*
X044582Y036957D02*
X044581Y036945D01*
X039221Y031585D01*
X029321Y027365D02*
X028721Y026765D01*
X026481Y022845D02*
X026481Y018125D01*
X027401Y018125D01*
X028081Y019085D02*
X027601Y019565D01*
X045581Y022605D02*
X046121Y022605D01*
X046134Y022609D01*
X053441Y015585D02*
X053441Y015365D01*
X053441Y015585D02*
X054521Y015585D01*
X054527Y015594D01*
X053261Y014405D02*
X053181Y014325D01*
X048679Y015035D02*
X048661Y015025D01*
X046981Y009225D02*
X045381Y009225D01*
X046981Y009225D02*
X046994Y009206D01*
X019757Y030155D02*
X019741Y030165D01*
X019741Y030845D01*
X018941Y030845D02*
X018761Y030665D01*
X018761Y030165D01*
X018757Y030155D01*
X019257Y030155D02*
X019261Y030165D01*
X019261Y035345D01*
X018381Y036945D02*
X018401Y036957D01*
X018381Y036945D02*
X018381Y031085D01*
X018021Y030385D02*
X018021Y032925D01*
X015761Y035185D01*
X022534Y036957D02*
X022541Y036945D01*
X022881Y036605D01*
X018021Y030385D02*
X018241Y030165D01*
X018257Y030155D01*
D45*
X019761Y027745D02*
X019757Y027735D01*
X019761Y027745D02*
X021761Y027745D01*
X021761Y037565D01*
X017641Y037565D01*
X017041Y036965D01*
X017023Y036957D01*
X008383Y030155D02*
X008381Y030145D01*
X008381Y028685D01*
X007541Y028525D02*
X007541Y026185D01*
X007500Y026080D01*
X007501Y026065D01*
X008941Y024625D01*
X008941Y021465D01*
X008841Y021405D01*
X008181Y021405D01*
X008041Y021265D01*
X008041Y020905D01*
X008061Y020885D01*
X008061Y016785D01*
X008241Y016785D01*
X008061Y016785D02*
X008061Y012385D01*
X008901Y011545D01*
X009006Y011495D01*
X009001Y011485D01*
X008441Y010925D01*
X008441Y010345D01*
X008432Y010330D01*
X012341Y009725D02*
X012341Y013405D01*
X012341Y014445D01*
X012181Y014605D01*
X012106Y014705D01*
X012121Y014705D01*
X012121Y015445D01*
X012106Y015455D01*
X012121Y015565D01*
X012121Y016205D01*
X012106Y016205D01*
X012121Y016305D01*
X012121Y016945D01*
X012106Y016955D01*
X012221Y016865D01*
X012661Y016865D01*
X012106Y016955D02*
X012121Y017065D01*
X012121Y017705D01*
X012106Y017705D01*
X015277Y019580D02*
X015277Y019641D01*
X015921Y020285D01*
X010801Y020205D02*
X010796Y020205D01*
X010801Y020105D01*
X010801Y015305D01*
X011401Y014705D01*
X011406Y014705D01*
X011421Y014605D01*
X011421Y013365D01*
X013881Y011790D02*
X013881Y011785D01*
X014461Y011785D01*
X014461Y011445D01*
X015241Y010665D02*
X015521Y010385D01*
X015521Y010205D01*
X015581Y010105D01*
X015581Y005365D01*
X011921Y001705D01*
X011905Y001702D01*
X013256Y009705D02*
X013181Y009725D01*
X013716Y010165D02*
X013881Y010165D01*
X016256Y011986D02*
X016261Y012005D01*
X016441Y012185D01*
X016441Y012765D01*
X018261Y012765D02*
X018681Y012345D01*
X018761Y012425D01*
X018761Y015565D01*
X018756Y015674D01*
X018861Y015685D01*
X019241Y015685D01*
X019256Y015674D01*
X019361Y015685D01*
X019741Y015685D01*
X019756Y015674D01*
X019861Y015685D01*
X020241Y015685D01*
X020256Y015674D01*
X020261Y015805D01*
X020261Y016445D01*
X018756Y015674D02*
X018741Y015685D01*
X018261Y015685D01*
X018256Y015674D01*
X018681Y012345D02*
X018741Y012285D01*
X018741Y012005D01*
X018756Y011986D01*
X018861Y011985D01*
X019241Y011985D01*
X019256Y011986D01*
X019361Y011985D01*
X019741Y011985D01*
X019756Y011986D01*
X019861Y011985D01*
X020241Y011985D01*
X020256Y011986D01*
X018756Y010415D02*
X018741Y010425D01*
X018021Y010425D01*
X018006Y010415D01*
X017901Y010485D01*
X017401Y010485D01*
X017401Y010505D01*
X016853Y011053D01*
X024421Y011830D02*
X025449Y012858D01*
X024476Y013830D01*
X024421Y013830D01*
X024421Y013865D01*
X025441Y014885D01*
X033756Y015824D02*
X033761Y015825D01*
X033761Y016805D01*
X033756Y016824D01*
X034761Y016745D02*
X034761Y016665D01*
X036501Y016665D01*
X036506Y016665D01*
X036821Y017845D02*
X038001Y016665D01*
X038006Y016665D01*
X038121Y016625D01*
X038601Y016145D01*
X037446Y014574D02*
X037441Y014565D01*
X036861Y013985D01*
X036321Y013985D01*
X036321Y012305D01*
X036721Y011905D01*
X037721Y011245D02*
X037821Y011145D01*
X037821Y009945D01*
X038601Y009785D02*
X038601Y003585D01*
X036721Y001705D01*
X036708Y001702D01*
X036581Y001725D01*
X036581Y001705D01*
X035341Y001705D01*
X035330Y001702D01*
X038086Y001702D02*
X038101Y001705D01*
X039464Y001705D01*
X039481Y001705D01*
X039481Y009145D01*
X040121Y009145D01*
X040131Y009165D01*
X041241Y009785D02*
X038601Y009785D01*
X041241Y009785D02*
X041241Y015225D01*
X046259Y015535D02*
X046261Y015525D01*
X046861Y015525D01*
X046961Y015545D01*
X048661Y015545D01*
X048679Y015535D01*
X046861Y015525D02*
X046861Y014525D01*
X046861Y013025D01*
X046261Y013025D01*
X046259Y013035D01*
X046861Y013025D02*
X047121Y013025D01*
X047121Y011065D01*
X047171Y010955D01*
X047181Y010945D01*
X047421Y010705D01*
X047421Y010165D01*
X047441Y010145D01*
X047441Y009765D01*
X047261Y009585D01*
X047541Y009305D01*
X047541Y005665D01*
X048681Y004525D01*
X052681Y004525D01*
X052692Y004507D01*
X055052Y004507D02*
X055061Y004505D01*
X058241Y004505D01*
X058241Y006005D01*
X059561Y007325D01*
X059631Y007430D01*
X059681Y007305D01*
X060221Y006765D01*
X060221Y004545D01*
X061881Y004545D01*
X063301Y005965D01*
X063804Y005614D01*
X063801Y005625D01*
X062641Y006785D01*
X062641Y007345D01*
X062623Y007464D01*
X062621Y007465D01*
X062621Y009005D01*
X061741Y009885D01*
X061501Y009645D01*
X061397Y009579D01*
X061401Y009565D01*
X061401Y009205D01*
X061397Y009205D01*
X061741Y009885D02*
X062241Y010385D01*
X063461Y010385D01*
X063464Y010397D01*
X061442Y007754D02*
X060365Y008831D01*
X059506Y008831D01*
X058295Y008831D01*
X058621Y008445D02*
X057841Y008445D01*
X057841Y009165D01*
X058201Y009525D01*
X058241Y009525D01*
X058256Y009540D01*
X058141Y009625D01*
X058141Y011505D01*
X055581Y014065D01*
X055521Y014165D01*
X055521Y015925D01*
X054881Y016565D01*
X054541Y016565D01*
X054527Y016578D01*
X054941Y016665D01*
X056261Y017985D01*
X056261Y019805D01*
X055381Y020685D01*
X055235Y020436D01*
X055241Y020445D01*
X055241Y020705D01*
X055381Y020845D01*
X053981Y022245D01*
X053501Y023065D02*
X052761Y022325D01*
X052756Y022324D01*
X053501Y023065D02*
X053501Y031785D01*
X054341Y032625D01*
X054356Y032645D01*
X052621Y032645D02*
X052441Y032645D01*
X052441Y032165D01*
X048521Y028245D01*
X048521Y023105D01*
X049001Y023105D01*
X049013Y023120D01*
X055381Y020845D02*
X056481Y021945D01*
X056496Y021946D01*
X056541Y022065D01*
X056541Y024885D01*
X058241Y026585D01*
X058280Y026696D01*
X058261Y026705D01*
X057521Y027445D01*
X057521Y028065D01*
X057506Y028080D01*
X058506Y024580D02*
X059457Y023629D01*
X058506Y024580D02*
X058205Y024279D01*
X058761Y022005D02*
X058772Y022005D01*
X058761Y022005D02*
X058261Y021505D01*
X056561Y021505D01*
X056561Y021845D01*
X056496Y021946D01*
X059472Y022005D02*
X059472Y015765D01*
X056021Y015765D01*
X055521Y014165D02*
X055061Y014165D01*
X054541Y013645D01*
X054527Y013625D01*
X059472Y015765D02*
X059472Y008865D01*
X058621Y008445D02*
X059621Y007445D01*
X059631Y007430D01*
X061442Y007754D02*
X061442Y005614D01*
X058241Y004505D02*
X058241Y003765D01*
X058218Y003640D01*
X058221Y003625D01*
X058221Y001085D01*
X058218Y001080D01*
X047261Y009585D02*
X047001Y009585D01*
X046994Y009580D01*
X046981Y009945D02*
X046994Y009954D01*
X046981Y009945D02*
X045341Y009945D01*
X043741Y009945D02*
X043201Y009945D01*
X043201Y009885D01*
X043131Y009790D01*
X043121Y009785D01*
X041901Y009785D01*
X041901Y008025D01*
X041887Y008020D01*
X041901Y009785D02*
X041241Y009785D01*
X046261Y014525D02*
X046259Y014535D01*
X046261Y014525D02*
X046861Y014525D01*
X036821Y017845D02*
X036821Y021345D01*
X037561Y021345D01*
X037681Y021465D01*
X037681Y021805D01*
X038241Y022365D01*
X038256Y022374D01*
X037256Y022415D02*
X036821Y022415D01*
X036821Y021345D01*
X036821Y022415D02*
X036401Y022415D01*
X036401Y023325D01*
X036881Y024025D02*
X037241Y023665D01*
X037256Y023665D01*
X036881Y024025D02*
X036881Y027830D01*
X024966Y022965D02*
X024581Y022965D01*
X024581Y023025D01*
X024461Y023145D01*
X024461Y027405D01*
X024881Y027825D01*
X024881Y027830D01*
X022061Y027745D02*
X021761Y027745D01*
X010796Y021080D02*
X010681Y021085D01*
X010141Y021085D01*
X010141Y021185D01*
X010141Y021085D02*
X009521Y021085D01*
X009518Y021081D01*
X009518Y021455D02*
X009501Y021465D01*
X008941Y021465D01*
X010796Y021080D02*
X010801Y021065D01*
X010801Y020205D01*
X006461Y016785D02*
X005381Y015705D01*
X004621Y028585D02*
X001101Y032105D01*
X001101Y033805D01*
X001621Y034325D01*
X001631Y034330D01*
X048716Y036957D02*
X048721Y036945D01*
X052441Y033225D01*
X052441Y032645D01*
D46*
X059537Y030755D02*
X059541Y030745D01*
X059541Y029645D01*
X059537Y029630D01*
X059501Y029565D01*
X059421Y029485D01*
X059421Y026765D01*
X059382Y026696D01*
X059401Y026685D01*
X059541Y026545D01*
X059541Y025225D01*
X059573Y025155D01*
X059581Y025145D01*
X060061Y024665D01*
X060061Y024525D01*
X060121Y024525D01*
X061081Y025485D01*
X061092Y025497D01*
X060061Y024525D02*
X060061Y023185D01*
X060101Y023145D01*
X058141Y022925D02*
X057181Y021965D01*
X057165Y021946D01*
X049013Y021585D02*
X049001Y021585D01*
X048361Y021585D01*
X047101Y022845D01*
X047101Y023645D01*
X047101Y022845D02*
X046141Y022845D01*
X046134Y022864D01*
X033756Y020824D02*
X033741Y020805D01*
X033461Y020525D01*
X033461Y020285D01*
X033041Y019865D01*
X033041Y015365D01*
X034301Y014830D02*
X034301Y017265D01*
X033761Y017805D01*
X033756Y017824D01*
X023821Y014425D02*
X023261Y013865D01*
X023261Y008925D01*
X023781Y008405D01*
X023781Y006005D01*
X016853Y011053D02*
X016046Y010245D01*
X016046Y010205D02*
X015521Y010205D01*
X015256Y010205D01*
X015006Y009515D02*
X015006Y007086D01*
X014000Y007080D02*
X013256Y007824D01*
X013256Y009705D01*
X013716Y010165D01*
X016853Y011053D02*
X017256Y011455D01*
X017256Y011986D01*
D47*
X014750Y010251D02*
X014309Y010693D01*
X013881Y011120D01*
X014750Y010251D02*
X014750Y010145D01*
X007330Y010330D02*
X005756Y010330D01*
X005381Y010705D01*
X023921Y011605D02*
X024441Y011085D01*
X025121Y011085D01*
X025091Y011115D01*
X025091Y011830D01*
X025121Y011085D02*
X026322Y011085D01*
X026419Y010987D01*
X027121Y011845D02*
X027121Y014525D01*
X026961Y014685D01*
X026961Y016245D01*
X027081Y016365D01*
X027081Y016645D01*
X026941Y016785D01*
X026941Y017165D01*
X027328Y017180D02*
X027328Y016838D01*
X027641Y016525D01*
X027641Y006885D01*
X028681Y005845D01*
X029161Y005885D02*
X029161Y005245D01*
X029161Y005885D02*
X027801Y007245D01*
X027801Y016565D01*
X027525Y016841D01*
X027525Y017180D01*
X026147Y017180D02*
X026147Y016231D01*
X023921Y014005D01*
X023921Y011605D01*
X025753Y017180D02*
X025761Y017188D01*
X025761Y018045D01*
X025521Y018285D01*
X025521Y019245D01*
X025961Y018285D02*
X025961Y017191D01*
X025950Y017180D01*
X025761Y017205D02*
X025753Y017180D01*
X025761Y017205D02*
X025761Y017525D01*
X028521Y019565D02*
X028892Y019936D01*
X030281Y019936D01*
X030272Y020125D02*
X030281Y020133D01*
X030272Y020125D02*
X028521Y020125D01*
X025521Y020685D02*
X025121Y021085D01*
X024481Y021085D01*
X024321Y020925D01*
X024001Y020925D01*
X023981Y020921D01*
X023983Y020725D02*
X023981Y020724D01*
X023983Y020725D02*
X025001Y020725D01*
X025361Y022525D02*
X024966Y022920D01*
X024966Y022965D01*
X024966Y023480D01*
X028509Y023480D02*
X028509Y022537D01*
X028521Y022525D01*
X028706Y022860D02*
X029041Y022525D01*
X028706Y022860D02*
X028706Y023480D01*
X046134Y022097D02*
X046134Y021073D01*
X046134Y022097D02*
X047158Y021073D01*
X049013Y021073D01*
X049269Y021073D01*
X049441Y021245D01*
X049441Y021645D01*
X049245Y021841D01*
X049013Y021841D01*
X048685Y021841D01*
X048481Y022045D01*
X048481Y022605D01*
X048740Y022864D01*
X049013Y022864D01*
X049001Y022877D01*
X049001Y023105D01*
X046521Y005325D02*
X046521Y004293D01*
X049109Y001705D01*
X047731Y001705D02*
X045161Y004275D01*
X045161Y005245D01*
D48*
X045161Y005245D03*
X046521Y005325D03*
X029161Y005245D03*
X028681Y005845D03*
X025961Y018285D03*
X025521Y019245D03*
X025521Y020685D03*
X025001Y020725D03*
X025361Y022525D03*
X028521Y022525D03*
X029041Y022525D03*
X028521Y020125D03*
X028521Y019565D03*
D49*
X034761Y016745D03*
X038601Y016145D03*
X041241Y015225D03*
X036721Y011905D03*
X037721Y011245D03*
X037821Y009945D03*
X043741Y009945D03*
X045341Y009945D03*
X056021Y015765D03*
X053981Y022245D03*
X036401Y023325D03*
X025441Y014885D03*
X020261Y016445D03*
X018261Y012765D03*
X016441Y012765D03*
X014461Y011445D03*
X015241Y010665D03*
X013181Y009725D03*
X012341Y009725D03*
X012341Y013405D03*
X011421Y013365D03*
X012661Y016865D03*
X008241Y016785D03*
X006461Y016785D03*
X010141Y021185D03*
X015921Y020285D03*
X022061Y027745D03*
X008381Y028685D03*
X007541Y028525D03*
X004621Y028585D03*
X052621Y032645D03*
D50*
X058073Y024279D02*
X058205Y024279D01*
X059472Y023420D02*
X059681Y023629D01*
X059472Y023420D02*
X059472Y022005D01*
X058256Y008870D02*
X058295Y008831D01*
X059472Y008865D02*
X059506Y008831D01*
X036816Y014830D02*
X034301Y014830D01*
X033762Y014830D01*
X033756Y014824D01*
X016046Y010245D02*
X016046Y010205D01*
X015262Y010199D02*
X015256Y010205D01*
X015262Y010199D02*
X015262Y010145D01*
X015006Y007086D02*
X015000Y007080D01*
D51*
X058506Y024580D02*
X058707Y024781D01*
X059457Y023629D02*
X059681Y023629D01*
D52*
X060481Y023545D03*
X058821Y022785D03*
X059861Y022625D03*
X059061Y021545D03*
X061021Y019585D03*
X053441Y015365D03*
X053181Y014325D03*
X053441Y013745D03*
X051621Y012785D03*
X050561Y013805D03*
X049341Y013805D03*
X049341Y013305D03*
X048021Y012785D03*
X047541Y014265D03*
X048021Y014285D03*
X049921Y015125D03*
X049181Y016325D03*
X049501Y016685D03*
X053181Y016825D03*
X050981Y019145D03*
X049281Y019925D03*
X049921Y020245D03*
X049621Y020625D03*
X051641Y021505D03*
X051361Y022465D03*
X053901Y025545D03*
X052661Y026705D03*
X053901Y029605D03*
X052941Y030265D03*
X055441Y029945D03*
X055721Y029305D03*
X061101Y029185D03*
X061061Y030265D03*
X058201Y025145D03*
X050321Y030625D03*
X052041Y032805D03*
X046401Y026705D03*
X043581Y023645D03*
X043281Y023265D03*
X045261Y022945D03*
X045581Y020945D03*
X044601Y020485D03*
X046041Y019925D03*
X041421Y020945D03*
X041381Y022145D03*
X038261Y019845D03*
X036421Y018225D03*
X034981Y018345D03*
X034181Y018325D03*
X032141Y018345D03*
X031641Y018765D03*
X031461Y018125D03*
X030841Y017805D03*
X029861Y017645D03*
X029021Y018125D03*
X028701Y017765D03*
X027401Y018125D03*
X026781Y017765D03*
X026281Y017785D03*
X026001Y019245D03*
X027281Y019085D03*
X028081Y019085D03*
X027601Y020245D03*
X028201Y020485D03*
X027681Y021365D03*
X025681Y022165D03*
X026481Y022845D03*
X026961Y022845D03*
X027661Y024065D03*
X029441Y024165D03*
X030661Y023705D03*
X031301Y023065D03*
X030861Y021985D03*
X031381Y021745D03*
X030961Y021425D03*
X031701Y020585D03*
X031061Y019745D03*
X029701Y020485D03*
X032661Y019945D03*
X035301Y021005D03*
X035661Y021825D03*
X036301Y021645D03*
X034501Y021645D03*
X033101Y021865D03*
X034181Y022945D03*
X035301Y022945D03*
X033021Y024645D03*
X032501Y024325D03*
X031741Y025605D03*
X031101Y025605D03*
X032021Y026245D03*
X033021Y026385D03*
X034181Y027025D03*
X035141Y026545D03*
X034501Y025925D03*
X037481Y024965D03*
X038121Y025925D03*
X037641Y027345D03*
X037321Y028885D03*
X036881Y029365D03*
X035761Y029945D03*
X034481Y030265D03*
X034661Y030905D03*
X032661Y029785D03*
X032021Y029945D03*
X030801Y029945D03*
X030521Y031225D03*
X031961Y030905D03*
X028561Y030745D03*
X028321Y029205D03*
X028501Y027405D03*
X028721Y026765D03*
X027461Y027105D03*
X027101Y026285D03*
X027461Y025965D03*
X026781Y025765D03*
X024861Y025765D03*
X023901Y025885D03*
X023361Y025825D03*
X023661Y025445D03*
X024061Y024645D03*
X024861Y024065D03*
X023841Y023325D03*
X022221Y023305D03*
X022221Y022825D03*
X021481Y023265D03*
X021101Y022945D03*
X020741Y023765D03*
X019261Y023765D03*
X019261Y024925D03*
X020321Y025425D03*
X019041Y026745D03*
X016981Y027065D03*
X016761Y029465D03*
X017261Y029465D03*
X018381Y031085D03*
X018941Y030845D03*
X019741Y030845D03*
X024481Y029205D03*
X024961Y030745D03*
X024901Y031265D03*
X030481Y027385D03*
X029441Y025765D03*
X029541Y022885D03*
X024641Y020405D03*
X024561Y019865D03*
X024561Y019225D03*
X024561Y018745D03*
X022921Y018165D03*
X022281Y018165D03*
X022601Y018945D03*
X022121Y019025D03*
X022881Y019345D03*
X022121Y019825D03*
X022441Y020205D03*
X023241Y021285D03*
X022801Y021905D03*
X019261Y021585D03*
X018461Y020845D03*
X017081Y020865D03*
X018461Y019665D03*
X019261Y018865D03*
X019241Y018385D03*
X020321Y019025D03*
X018041Y017845D03*
X017241Y017005D03*
X016761Y016985D03*
X017561Y016645D03*
X015201Y015645D03*
X014581Y014665D03*
X016081Y013825D03*
X016521Y014985D03*
X017561Y014785D03*
X017981Y014525D03*
X018361Y014225D03*
X019161Y014545D03*
X021321Y013905D03*
X021001Y013245D03*
X021641Y013065D03*
X021961Y013425D03*
X022921Y014105D03*
X023281Y014425D03*
X022761Y015105D03*
X023461Y015345D03*
X023701Y016045D03*
X023081Y016045D03*
X023401Y016845D03*
X022921Y017585D03*
X020721Y016845D03*
X021961Y014785D03*
X021001Y012485D03*
X019661Y011305D03*
X019621Y010805D03*
X020361Y011145D03*
X021001Y010485D03*
X020361Y010185D03*
X021001Y009385D03*
X022021Y008665D03*
X023401Y007405D03*
X022501Y005405D03*
X021501Y003345D03*
X021221Y002705D03*
X019801Y002705D03*
X016961Y007965D03*
X016261Y009385D03*
X017201Y010105D03*
X017601Y011305D03*
X015361Y011845D03*
X014101Y012425D03*
X012761Y012105D03*
X009821Y011865D03*
X009021Y012665D03*
X009441Y013505D03*
X010541Y014145D03*
X011021Y014145D03*
X012761Y014145D03*
X007501Y013825D03*
X006941Y013745D03*
X014361Y009825D03*
X023621Y010345D03*
X027121Y011845D03*
X029541Y012505D03*
X030041Y012505D03*
X030041Y011845D03*
X031161Y012005D03*
X033181Y011245D03*
X035921Y012805D03*
X036721Y012805D03*
X039421Y013905D03*
X040181Y013605D03*
X040021Y012005D03*
X036821Y011045D03*
X032101Y009325D03*
X030861Y008005D03*
X029521Y007245D03*
X029521Y006065D03*
X031501Y006265D03*
X028341Y008645D03*
X038201Y006905D03*
X040581Y006965D03*
X041221Y006965D03*
X041701Y006965D03*
X040981Y008005D03*
X045381Y009225D03*
X047141Y007005D03*
X047941Y005845D03*
X047141Y005725D03*
X049541Y005525D03*
X050321Y005845D03*
X052021Y007325D03*
X053261Y006685D03*
X048541Y010045D03*
X040181Y018005D03*
X041141Y018805D03*
X031481Y016805D03*
X030041Y016225D03*
X028641Y016225D03*
X026741Y016525D03*
X027281Y014825D03*
X030841Y015185D03*
X016941Y023185D03*
X015141Y021545D03*
X014181Y020585D03*
X012801Y020045D03*
X012481Y018525D03*
X012121Y018205D03*
X011201Y018185D03*
X010401Y018505D03*
X009161Y018185D03*
X007481Y019865D03*
X007801Y021605D03*
X010241Y022965D03*
X011801Y021545D03*
X013321Y023825D03*
X013801Y023825D03*
X012001Y025105D03*
X009121Y027065D03*
X008281Y026745D03*
X008981Y028425D03*
X008941Y028925D03*
X010121Y028785D03*
X010881Y028425D03*
X011981Y029105D03*
X011621Y029425D03*
X011621Y030825D03*
X010701Y030845D03*
X007981Y031165D03*
X007641Y029105D03*
X007121Y029045D03*
X006621Y025265D03*
X014781Y018365D03*
X023041Y024645D03*
X022901Y026745D03*
X023861Y027265D03*
X034281Y034005D03*
X031981Y034325D03*
X031841Y034805D03*
X033121Y037485D03*
X035881Y037505D03*
X036881Y037825D03*
X037161Y035505D03*
X039221Y031585D03*
X039881Y029265D03*
X039541Y028925D03*
X039221Y028565D03*
X040021Y027345D03*
X019261Y035345D03*
X015761Y035185D03*
X010381Y035505D03*
X044321Y000505D03*
D53*
X023781Y006005D03*
X023821Y014425D03*
X033041Y015365D03*
X047101Y023645D03*
X058141Y022925D03*
X060101Y023145D03*
M02*
