%
M48
M72
T01C0.0197
T02C0.0200
T03C0.0315
T04C0.0320
T05C0.0354
T06C0.0360
T07C0.0394
T08C0.0400
T09C0.0433
T10C0.0472
T11C0.0630
T12C0.0900
T13C0.1180
T14C0.1300
%
T01
X28681Y5845
X29161Y5245
X45161Y5245
X46521Y5325
X25961Y18285
X25521Y19245
X25521Y20685
X25001Y20725
X25361Y22525
X28521Y22525
X29041Y22525
X28521Y20125
X28521Y19565
T02
X28081Y19085
X27281Y19085
X27401Y18125
X26781Y17765
X26281Y17785
X26001Y19245
X24561Y19225
X24561Y18745
X22921Y18165
X22281Y18165
X22601Y18945
X22121Y19025
X22881Y19345
X22121Y19825
X22441Y20205
X23241Y21285
X22801Y21905
X22221Y22825
X22221Y23305
X21481Y23265
X21101Y22945
X20741Y23765
X19261Y23765
X19261Y24925
X20321Y25425
X19041Y26745
X16981Y27065
X16761Y29465
X17261Y29465
X18381Y31085
X18941Y30845
X19741Y30845
X24481Y29205
X24961Y30745
X24901Y31265
X28561Y30745
X30521Y31225
X31961Y30905
X32021Y29945
X32661Y29785
X30801Y29945
X28321Y29205
X28501Y27405
X28721Y26765
X27461Y27105
X27101Y26285
X27461Y25965
X26781Y25765
X24861Y25765
X23901Y25885
X23361Y25825
X23661Y25445
X24061Y24645
X24861Y24065
X23841Y23325
X23041Y24645
X26481Y22845
X26961Y22845
X25681Y22165
X27681Y21365
X28201Y20485
X27601Y20245
X29701Y20485
X31061Y19745
X31701Y20585
X30961Y21425
X31381Y21745
X30861Y21985
X31301Y23065
X30661Y23705
X29441Y24165
X27661Y24065
X29541Y22885
X32501Y24325
X33021Y24645
X31741Y25605
X31101Y25605
X32021Y26245
X33021Y26385
X34181Y27025
X35141Y26545
X34501Y25925
X37481Y24965
X38121Y25925
X37641Y27345
X37321Y28885
X36881Y29365
X35761Y29945
X34481Y30265
X34661Y30905
X39221Y31585
X39881Y29265
X39541Y28925
X39221Y28565
X40021Y27345
X43581Y23645
X43281Y23265
X45261Y22945
X45581Y20945
X44601Y20485
X46041Y19925
X49281Y19925
X49921Y20245
X49621Y20625
X51641Y21505
X51361Y22465
X53901Y25545
X52661Y26705
X53901Y29605
X52941Y30265
X55441Y29945
X55721Y29305
X61101Y29185
X61061Y30265
X58201Y25145
X60481Y23545
X58821Y22785
X59861Y22625
X59061Y21545
X61021Y19585
X53441Y15365
X53181Y14325
X53441Y13745
X51621Y12785
X50561Y13805
X49341Y13805
X49341Y13305
X48021Y12785
X47541Y14265
X48021Y14285
X49921Y15125
X49181Y16325
X49501Y16685
X53181Y16825
X50981Y19145
X41421Y20945
X41381Y22145
X38261Y19845
X36421Y18225
X34981Y18345
X34181Y18325
X32141Y18345
X31641Y18765
X31461Y18125
X30841Y17805
X29861Y17645
X29021Y18125
X28701Y17765
X28641Y16225
X30041Y16225
X31481Y16805
X30841Y15185
X27281Y14825
X26741Y16525
X23701Y16045
X23081Y16045
X23461Y15345
X22761Y15105
X21961Y14785
X21321Y13905
X21001Y13245
X21641Y13065
X21961Y13425
X22921Y14105
X23281Y14425
X21001Y12485
X19661Y11305
X19621Y10805
X20361Y11145
X21001Y10485
X20361Y10185
X21001Y9385
X22021Y8665
X23401Y7405
X22501Y5405
X21501Y3345
X21221Y2705
X19801Y2705
X16961Y7965
X16261Y9385
X17201Y10105
X17601Y11305
X15361Y11845
X14101Y12425
X12761Y12105
X9821Y11865
X9021Y12665
X9441Y13505
X10541Y14145
X11021Y14145
X12761Y14145
X14581Y14665
X15201Y15645
X16521Y14985
X17561Y14785
X17981Y14525
X18361Y14225
X19161Y14545
X16081Y13825
X17561Y16645
X17241Y17005
X16761Y16985
X18041Y17845
X19241Y18385
X19261Y18865
X20321Y19025
X18461Y19665
X18461Y20845
X19261Y21585
X17081Y20865
X15141Y21545
X14181Y20585
X12801Y20045
X12481Y18525
X12121Y18205
X11201Y18185
X10401Y18505
X9161Y18185
X7481Y19865
X7801Y21605
X10241Y22965
X11801Y21545
X13321Y23825
X13801Y23825
X12001Y25105
X9121Y27065
X8281Y26745
X8981Y28425
X8941Y28925
X10121Y28785
X10881Y28425
X11981Y29105
X11621Y29425
X11621Y30825
X10701Y30845
X7981Y31165
X7641Y29105
X7121Y29045
X6621Y25265
X16941Y23185
X22901Y26745
X23861Y27265
X29441Y25765
X30481Y27385
X34181Y22945
X35301Y22945
X35661Y21825
X36301Y21645
X35301Y21005
X34501Y21645
X33101Y21865
X32661Y19945
X40181Y18005
X41141Y18805
X39421Y13905
X40181Y13605
X40021Y12005
X36821Y11045
X36721Y12805
X35921Y12805
X33181Y11245
X31161Y12005
X30041Y11845
X30041Y12505
X29541Y12505
X27121Y11845
X23621Y10345
X28341Y8645
X30861Y8005
X29521Y7245
X29521Y6065
X31501Y6265
X32101Y9325
X38201Y6905
X40581Y6965
X41221Y6965
X41701Y6965
X40981Y8005
X45381Y9225
X47141Y7005
X47941Y5845
X47141Y5725
X49541Y5525
X50321Y5845
X52021Y7325
X53261Y6685
X48541Y10045
X44321Y505
X23401Y16845
X22921Y17585
X20721Y16845
X24561Y19865
X24641Y20405
X14781Y18365
X7501Y13825
X6941Y13745
X14361Y9825
X46401Y26705
X50321Y30625
X52041Y32805
X37161Y35505
X35881Y37505
X36881Y37825
X33121Y37485
X31841Y34805
X31981Y34325
X34281Y34005
X19261Y35345
X15761Y35185
X10381Y35505
T03
X33041Y15365
X23821Y14425
X23781Y6005
X47101Y23645
X58141Y22925
X60101Y23145
T04
X57506Y28080
X57506Y29080
X36881Y27830
X35881Y27830
X34881Y27830
X33881Y27830
X32881Y27830
X31881Y27830
X30881Y27830
X29881Y27830
X28881Y27830
X27881Y27830
X26881Y27830
X25881Y27830
X24881Y27830
X23881Y27830
X22881Y27830
X22881Y31830
X23881Y31830
X24881Y31830
X25881Y31830
X26881Y31830
X27881Y31830
X28881Y31830
X29881Y31830
X30881Y31830
X31881Y31830
X32881Y31830
X33881Y31830
X34881Y31830
X35881Y31830
X36881Y31830
X52692Y4507
X55052Y4507
X55052Y2547
X52692Y2547
T05
X2631Y32330
X1631Y32330
X1631Y33330
X2631Y33330
X2631Y34330
X1631Y34330
T06
X61092Y25497
X61872Y25497
X61872Y24513
X61092Y24513
T07
X53981Y22245
X56021Y15765
X45341Y9945
X43741Y9945
X37821Y9945
X37721Y11245
X36721Y11905
X41241Y15225
X38601Y16145
X34761Y16745
X25441Y14885
X20261Y16445
X18261Y12765
X16441Y12765
X14461Y11445
X15241Y10665
X13181Y9725
X12341Y9725
X12341Y13405
X11421Y13365
X12661Y16865
X8241Y16785
X6461Y16785
X10141Y21185
X15921Y20285
X22061Y27745
X8381Y28685
X7541Y28525
X4621Y28585
X36401Y23325
X52621Y32645
T08
X54356Y32645
X54356Y31645
X55356Y31645
X56356Y31645
X56356Y32645
X55356Y32645
X57356Y32645
X58356Y32645
X58356Y31645
X57356Y31645
X52756Y25324
X52756Y24324
X52756Y23324
X52756Y22324
X52756Y21324
X52756Y20324
X52756Y19324
X52756Y18324
X52756Y17324
X52756Y16324
X52756Y14824
X52756Y13824
X52756Y12824
X52756Y11824
X52756Y10824
X52756Y9824
X52756Y8824
X52756Y7824
X58218Y3640
X59998Y3640
X59998Y1080
X58218Y1080
X33756Y7824
X33756Y8824
X33756Y9824
X33756Y10824
X33756Y11824
X33756Y12824
X33756Y14824
X33756Y15824
X33756Y16824
X33756Y17824
X33756Y18824
X33756Y19824
X33756Y20824
X33756Y21824
X22000Y26080
X21000Y26080
X20000Y26080
X19000Y26080
X18000Y26080
X17000Y26080
X16000Y26080
X15000Y26080
X13500Y26080
X12500Y26080
X11500Y26080
X10500Y26080
X9500Y26080
X8500Y26080
X7500Y26080
X6500Y26080
X5500Y26080
X4500Y26080
X8000Y7080
X9000Y7080
X10000Y7080
X11000Y7080
X12000Y7080
X13000Y7080
X14000Y7080
X15000Y7080
X17000Y7080
X18000Y7080
X19000Y7080
X20000Y7080
X21000Y7080
X22000Y7080
T09
X55708Y11263
T10
X49109Y1705
X47731Y1705
X46353Y1705
X44975Y1705
X43597Y1705
X42219Y1705
X40842Y1705
X39464Y1705
X38086Y1702
X36708Y1702
X35330Y1702
X33952Y1702
X32574Y1702
X31196Y1702
X29818Y1702
X28440Y1705
X27062Y1705
X25684Y1705
X24306Y1705
X22928Y1705
X21550Y1705
X20172Y1705
X18794Y1705
X17416Y1705
X16038Y1702
X14660Y1702
X13282Y1702
X11905Y1702
X10527Y1702
X9149Y1702
X7771Y1702
X6393Y1705
X5999Y36960
X4621Y36957
X7377Y36960
X8755Y36960
X10133Y36960
X11511Y36960
X12889Y36960
X14267Y36960
X15645Y36957
X17023Y36957
X18401Y36957
X19779Y36957
X21156Y36957
X22534Y36957
X23912Y36957
X25290Y36957
X26668Y36957
X28046Y36960
X29424Y36960
X30802Y36960
X32180Y36960
X33558Y36960
X34936Y36960
X36314Y36960
X37692Y36957
X39070Y36957
X40448Y36957
X41826Y36957
X43204Y36957
X44582Y36957
X45960Y36957
X47338Y36957
X48716Y36957
X50094Y36957
X51471Y36957
X52849Y36957
X54227Y36957
X55605Y36957
X56983Y36957
X58361Y36957
X59739Y36957
X61117Y36957
X62495Y36957
X63873Y36957
T11
X55708Y19570
T12
X62942Y22635
X62942Y27375
T13
X62623Y7464
X61442Y5614
X63804Y5614
T14
X2381Y1705
X2381Y36830
X63881Y32705
X63881Y1705
M30
