G75*
%MOIN*%
%OFA0B0*%
%FSLAX24Y24*%
%IPPOS*%
%LPD*%
%AMOC8*
5,1,8,0,0,1.08239X$1,22.5*
%
%ADD10R,0.0433X0.0394*%
%ADD11R,0.0315X0.0472*%
%ADD12R,0.0800X0.0260*%
%ADD13R,0.0472X0.0217*%
%ADD14R,0.1102X0.0787*%
%ADD15R,0.1575X0.0276*%
%ADD16R,0.1575X0.0472*%
%ADD17R,0.1600X0.1600*%
%ADD18R,0.2000X0.2000*%
%ADD19R,0.0394X0.0433*%
%ADD20R,0.0550X0.0137*%
%ADD21R,0.0315X0.0315*%
%ADD22R,0.0551X0.0394*%
%ADD23C,0.0283*%
%ADD24R,0.0480X0.0245*%
%ADD25R,0.0551X0.0630*%
%ADD26R,0.0209X0.0780*%
%ADD27R,0.0591X0.0118*%
%ADD28R,0.0118X0.0591*%
%ADD29R,0.0709X0.0551*%
%ADD30R,0.0827X0.2205*%
%ADD31R,0.2205X0.0827*%
%ADD32R,0.0118X0.0276*%
%ADD33R,0.0260X0.0800*%
%ADD34R,0.0276X0.0118*%
D10*
X013881Y009495D03*
X013881Y010165D03*
X013881Y011120D03*
X013881Y011790D03*
X018006Y010415D03*
X018756Y010415D03*
X018756Y009745D03*
X018006Y009745D03*
X024421Y011830D03*
X025091Y011830D03*
X025091Y013830D03*
X024421Y013830D03*
X036506Y015995D03*
X036506Y016665D03*
X038006Y016665D03*
X038006Y015995D03*
X037466Y013580D03*
X036796Y013580D03*
X043131Y009790D03*
X043131Y009120D03*
X040131Y009165D03*
X040131Y008495D03*
X047171Y010955D03*
X047841Y010955D03*
X056496Y021946D03*
X057165Y021946D03*
X059681Y023629D03*
X059681Y024299D03*
X055506Y028120D03*
X055506Y028790D03*
X037256Y023665D03*
X037256Y022995D03*
X037256Y022415D03*
X037256Y021745D03*
X018216Y023205D03*
X017546Y023205D03*
D11*
X015985Y019580D03*
X015277Y019580D03*
D12*
X046259Y015535D03*
X046259Y015035D03*
X046259Y014535D03*
X046259Y014035D03*
X046259Y013535D03*
X046259Y013035D03*
X046259Y012535D03*
X046259Y012035D03*
X048679Y012035D03*
X048679Y012535D03*
X048679Y013035D03*
X048679Y013535D03*
X048679Y014035D03*
X048679Y014535D03*
X048679Y015035D03*
X048679Y015535D03*
D13*
X048018Y009954D03*
X048018Y009206D03*
X046994Y009206D03*
X046994Y009580D03*
X046994Y009954D03*
X009518Y021081D03*
X009518Y021455D03*
X009518Y021829D03*
X008494Y021829D03*
X008494Y021081D03*
D14*
X055235Y020436D03*
X063464Y021381D03*
X063464Y010397D03*
X055275Y010358D03*
D15*
X054527Y011027D03*
X054527Y011499D03*
X054527Y012011D03*
D16*
X054527Y012641D03*
X054527Y013625D03*
X054527Y014610D03*
X054527Y015594D03*
X054527Y016578D03*
X054527Y017562D03*
X054527Y018547D03*
X054527Y019531D03*
D17*
X005381Y015705D03*
D18*
X005381Y010705D03*
X005381Y020705D03*
D19*
X010796Y021080D03*
X011466Y021080D03*
X011466Y020205D03*
X010796Y020205D03*
X009006Y012165D03*
X009006Y011495D03*
X016046Y010205D03*
X016716Y010205D03*
X043131Y008040D03*
X043131Y007370D03*
X058256Y008870D03*
X058256Y009540D03*
X044938Y020958D03*
X044938Y021627D03*
X059537Y029630D03*
X060207Y029630D03*
X060207Y030755D03*
X059537Y030755D03*
D20*
X049013Y023632D03*
X049013Y023376D03*
X049013Y023120D03*
X049013Y022864D03*
X049013Y022609D03*
X049013Y022353D03*
X049013Y022097D03*
X049013Y021841D03*
X049013Y021585D03*
X049013Y021329D03*
X049013Y021073D03*
X049013Y020817D03*
X049013Y020561D03*
X049013Y020305D03*
X046134Y020305D03*
X046134Y020561D03*
X046134Y020817D03*
X046134Y021073D03*
X046134Y021329D03*
X046134Y021585D03*
X046134Y021841D03*
X046134Y022097D03*
X046134Y022353D03*
X046134Y022609D03*
X046134Y022864D03*
X046134Y023120D03*
X046134Y023376D03*
X046134Y023632D03*
D21*
X060952Y029630D03*
X061542Y029630D03*
X061542Y030755D03*
X060952Y030755D03*
D22*
X058707Y025529D03*
X059573Y025155D03*
X058707Y024781D03*
X058073Y024279D03*
X058073Y023531D03*
X057207Y023905D03*
D23*
X058736Y022080D02*
X058736Y021930D01*
X058736Y022080D02*
X058808Y022080D01*
X058808Y021930D01*
X058736Y021930D01*
X059436Y021930D02*
X059436Y022080D01*
X059508Y022080D01*
X059508Y021930D01*
X059436Y021930D01*
X059556Y007466D02*
X059706Y007466D01*
X059706Y007394D01*
X059556Y007394D01*
X059556Y007466D01*
X059556Y006766D02*
X059706Y006766D01*
X059706Y006694D01*
X059556Y006694D01*
X059556Y006766D01*
X012070Y014630D02*
X012070Y014780D01*
X012142Y014780D01*
X012142Y014630D01*
X012070Y014630D01*
X011370Y014630D02*
X011370Y014780D01*
X011442Y014780D01*
X011442Y014630D01*
X011370Y014630D01*
X011442Y015380D02*
X011442Y015530D01*
X011442Y015380D02*
X011370Y015380D01*
X011370Y015530D01*
X011442Y015530D01*
X012142Y015530D02*
X012142Y015380D01*
X012070Y015380D01*
X012070Y015530D01*
X012142Y015530D01*
X012142Y016130D02*
X012142Y016280D01*
X012142Y016130D02*
X012070Y016130D01*
X012070Y016280D01*
X012142Y016280D01*
X012142Y016880D02*
X012142Y017030D01*
X012142Y016880D02*
X012070Y016880D01*
X012070Y017030D01*
X012142Y017030D01*
X012142Y017630D02*
X012142Y017780D01*
X012142Y017630D02*
X012070Y017630D01*
X012070Y017780D01*
X012142Y017780D01*
X011442Y017780D02*
X011442Y017630D01*
X011370Y017630D01*
X011370Y017780D01*
X011442Y017780D01*
X011442Y017030D02*
X011442Y016880D01*
X011370Y016880D01*
X011370Y017030D01*
X011442Y017030D01*
X011442Y016280D02*
X011442Y016130D01*
X011370Y016130D01*
X011370Y016280D01*
X011442Y016280D01*
D24*
X060365Y009579D03*
X060365Y009205D03*
X060365Y008831D03*
X061397Y008831D03*
X061397Y009205D03*
X061397Y009579D03*
D25*
X059382Y026696D03*
X058280Y026696D03*
X008432Y010330D03*
X007330Y010330D03*
D26*
X015756Y011986D03*
X016256Y011986D03*
X016756Y011986D03*
X017256Y011986D03*
X017756Y011986D03*
X018256Y011986D03*
X018756Y011986D03*
X019256Y011986D03*
X019756Y011986D03*
X020256Y011986D03*
X020256Y015674D03*
X019756Y015674D03*
X019256Y015674D03*
X018756Y015674D03*
X018256Y015674D03*
X017756Y015674D03*
X017256Y015674D03*
X016756Y015674D03*
X016256Y015674D03*
X015756Y015674D03*
D27*
X023981Y017968D03*
X023981Y018165D03*
X023981Y018361D03*
X023981Y018558D03*
X023981Y018755D03*
X023981Y018952D03*
X023981Y019149D03*
X023981Y019346D03*
X023981Y019543D03*
X023981Y019739D03*
X023981Y019936D03*
X023981Y020133D03*
X023981Y020330D03*
X023981Y020527D03*
X023981Y020724D03*
X023981Y020921D03*
X023981Y021117D03*
X023981Y021314D03*
X023981Y021511D03*
X023981Y021708D03*
X023981Y021905D03*
X023981Y022102D03*
X023981Y022299D03*
X023981Y022495D03*
X023981Y022692D03*
X030281Y022692D03*
X030281Y022495D03*
X030281Y022299D03*
X030281Y022102D03*
X030281Y021905D03*
X030281Y021708D03*
X030281Y021511D03*
X030281Y021314D03*
X030281Y021117D03*
X030281Y020921D03*
X030281Y020724D03*
X030281Y020527D03*
X030281Y020330D03*
X030281Y020133D03*
X030281Y019936D03*
X030281Y019739D03*
X030281Y019543D03*
X030281Y019346D03*
X030281Y019149D03*
X030281Y018952D03*
X030281Y018755D03*
X030281Y018558D03*
X030281Y018361D03*
X030281Y018165D03*
X030281Y017968D03*
D28*
X029493Y017180D03*
X029296Y017180D03*
X029099Y017180D03*
X028903Y017180D03*
X028706Y017180D03*
X028509Y017180D03*
X028312Y017180D03*
X028115Y017180D03*
X027918Y017180D03*
X027721Y017180D03*
X027525Y017180D03*
X027328Y017180D03*
X027131Y017180D03*
X026934Y017180D03*
X026737Y017180D03*
X026540Y017180D03*
X026344Y017180D03*
X026147Y017180D03*
X025950Y017180D03*
X025753Y017180D03*
X025556Y017180D03*
X025359Y017180D03*
X025162Y017180D03*
X024966Y017180D03*
X024769Y017180D03*
X024769Y023480D03*
X024966Y023480D03*
X025162Y023480D03*
X025359Y023480D03*
X025556Y023480D03*
X025753Y023480D03*
X025950Y023480D03*
X026147Y023480D03*
X026344Y023480D03*
X026540Y023480D03*
X026737Y023480D03*
X026934Y023480D03*
X027131Y023480D03*
X027328Y023480D03*
X027525Y023480D03*
X027721Y023480D03*
X027918Y023480D03*
X028115Y023480D03*
X028312Y023480D03*
X028509Y023480D03*
X028706Y023480D03*
X028903Y023480D03*
X029099Y023480D03*
X029296Y023480D03*
X029493Y023480D03*
D29*
X038256Y022374D03*
X038256Y021036D03*
D30*
X026419Y014728D03*
X026419Y010987D03*
D31*
X025730Y012858D03*
D32*
X015262Y010145D03*
X015006Y010145D03*
X014750Y010145D03*
X014750Y009515D03*
X015006Y009515D03*
X015262Y009515D03*
X041375Y008020D03*
X041631Y008020D03*
X041887Y008020D03*
X041887Y007390D03*
X041631Y007390D03*
X041375Y007390D03*
D33*
X019757Y027735D03*
X019257Y027735D03*
X018757Y027735D03*
X018257Y027735D03*
X017757Y027735D03*
X017257Y027735D03*
X016757Y027735D03*
X016257Y027735D03*
X016257Y030155D03*
X016757Y030155D03*
X017257Y030155D03*
X017757Y030155D03*
X018257Y030155D03*
X018757Y030155D03*
X019257Y030155D03*
X019757Y030155D03*
X011883Y030155D03*
X011383Y030155D03*
X010883Y030155D03*
X010383Y030155D03*
X009883Y030155D03*
X009383Y030155D03*
X008883Y030155D03*
X008383Y030155D03*
X008383Y027735D03*
X008883Y027735D03*
X009383Y027735D03*
X009883Y027735D03*
X010383Y027735D03*
X010883Y027735D03*
X011383Y027735D03*
X011883Y027735D03*
D34*
X036816Y015086D03*
X036816Y014830D03*
X036816Y014574D03*
X037446Y014574D03*
X037446Y014830D03*
X037446Y015086D03*
M02*
