G75*
%MOIN*%
%OFA0B0*%
%FSLAX24Y24*%
%IPPOS*%
%LPD*%
%AMOC8*
5,1,8,0,0,1.08239X$1,22.5*
%
%ADD10C,0.0513*%
%ADD11C,0.0710*%
%ADD12C,0.1380*%
%ADD13C,0.0820*%
%ADD14OC8,0.0640*%
%ADD15C,0.0720*%
%ADD16C,0.1780*%
%ADD17C,0.0740*%
%ADD18R,0.0880X0.0880*%
%ADD19C,0.0880*%
%ADD20OC8,0.0820*%
%ADD21C,0.0674*%
%ADD22C,0.0595*%
D10*
X055708Y011263D03*
D11*
X055708Y019570D03*
D12*
X002381Y001705D03*
X062942Y022635D03*
X062942Y027375D03*
X063881Y032705D03*
X063881Y001705D03*
X002381Y036830D03*
D13*
X004500Y026080D03*
X005500Y026080D03*
X006500Y026080D03*
X007500Y026080D03*
X008500Y026080D03*
X009500Y026080D03*
X010500Y026080D03*
X011500Y026080D03*
X012500Y026080D03*
X013500Y026080D03*
X015000Y026080D03*
X016000Y026080D03*
X017000Y026080D03*
X018000Y026080D03*
X019000Y026080D03*
X020000Y026080D03*
X021000Y026080D03*
X022000Y026080D03*
X033756Y021824D03*
X033756Y020824D03*
X033756Y019824D03*
X033756Y018824D03*
X033756Y017824D03*
X033756Y016824D03*
X033756Y015824D03*
X033756Y014824D03*
X033756Y012824D03*
X033756Y011824D03*
X033756Y010824D03*
X033756Y009824D03*
X033756Y008824D03*
X033756Y007824D03*
X022000Y007080D03*
X021000Y007080D03*
X020000Y007080D03*
X019000Y007080D03*
X018000Y007080D03*
X017000Y007080D03*
X015000Y007080D03*
X014000Y007080D03*
X013000Y007080D03*
X012000Y007080D03*
X011000Y007080D03*
X010000Y007080D03*
X009000Y007080D03*
X008000Y007080D03*
X052756Y007824D03*
X052756Y008824D03*
X052756Y009824D03*
X052756Y010824D03*
X052756Y011824D03*
X052756Y012824D03*
X052756Y013824D03*
X052756Y014824D03*
X052756Y016324D03*
X052756Y017324D03*
X052756Y018324D03*
X052756Y019324D03*
X052756Y020324D03*
X052756Y021324D03*
X052756Y022324D03*
X052756Y023324D03*
X052756Y024324D03*
X052756Y025324D03*
X057506Y028080D03*
X057506Y029080D03*
X058218Y003640D03*
X059998Y003640D03*
X059998Y001080D03*
X058218Y001080D03*
D14*
X055052Y002547D03*
X052692Y002547D03*
X052692Y004507D03*
X055052Y004507D03*
X036881Y027830D03*
X035881Y027830D03*
X034881Y027830D03*
X033881Y027830D03*
X032881Y027830D03*
X031881Y027830D03*
X030881Y027830D03*
X029881Y027830D03*
X028881Y027830D03*
X027881Y027830D03*
X026881Y027830D03*
X025881Y027830D03*
X024881Y027830D03*
X023881Y027830D03*
X022881Y027830D03*
X022881Y031830D03*
X023881Y031830D03*
X024881Y031830D03*
X025881Y031830D03*
X026881Y031830D03*
X027881Y031830D03*
X028881Y031830D03*
X029881Y031830D03*
X030881Y031830D03*
X031881Y031830D03*
X032881Y031830D03*
X033881Y031830D03*
X034881Y031830D03*
X035881Y031830D03*
X036881Y031830D03*
D15*
X002631Y032330D03*
X001631Y032330D03*
X001631Y033330D03*
X002631Y033330D03*
X002631Y034330D03*
X001631Y034330D03*
D16*
X061442Y005614D03*
X063804Y005614D03*
X062623Y007464D03*
D17*
X061872Y024513D03*
X061092Y024513D03*
X061092Y025497D03*
X061872Y025497D03*
D18*
X059739Y036957D03*
X048716Y036957D03*
X037692Y036957D03*
X026668Y036957D03*
X015645Y036957D03*
X004621Y036957D03*
X006393Y001705D03*
X017416Y001705D03*
X028440Y001705D03*
X039464Y001705D03*
D19*
X040842Y001705D03*
X042219Y001705D03*
X043597Y001705D03*
X044975Y001705D03*
X046353Y001705D03*
X047731Y001705D03*
X049109Y001705D03*
X038086Y001702D03*
X036708Y001702D03*
X035330Y001702D03*
X033952Y001702D03*
X032574Y001702D03*
X031196Y001702D03*
X029818Y001702D03*
X027062Y001705D03*
X025684Y001705D03*
X024306Y001705D03*
X022928Y001705D03*
X021550Y001705D03*
X020172Y001705D03*
X018794Y001705D03*
X016038Y001702D03*
X014660Y001702D03*
X013282Y001702D03*
X011905Y001702D03*
X010527Y001702D03*
X009149Y001702D03*
X007771Y001702D03*
X007377Y036960D03*
X005999Y036960D03*
X008755Y036960D03*
X010133Y036960D03*
X011511Y036960D03*
X012889Y036960D03*
X014267Y036960D03*
X017023Y036957D03*
X018401Y036957D03*
X019779Y036957D03*
X021156Y036957D03*
X022534Y036957D03*
X023912Y036957D03*
X025290Y036957D03*
X028046Y036960D03*
X029424Y036960D03*
X030802Y036960D03*
X032180Y036960D03*
X033558Y036960D03*
X034936Y036960D03*
X036314Y036960D03*
X039070Y036957D03*
X040448Y036957D03*
X041826Y036957D03*
X043204Y036957D03*
X044582Y036957D03*
X045960Y036957D03*
X047338Y036957D03*
X050094Y036957D03*
X051471Y036957D03*
X052849Y036957D03*
X054227Y036957D03*
X055605Y036957D03*
X056983Y036957D03*
X058361Y036957D03*
X061117Y036957D03*
X062495Y036957D03*
X063873Y036957D03*
D20*
X058356Y032645D03*
X057356Y032645D03*
X056356Y032645D03*
X055356Y032645D03*
X054356Y032645D03*
X054356Y031645D03*
X055356Y031645D03*
X056356Y031645D03*
X057356Y031645D03*
X058356Y031645D03*
D21*
X052621Y032645D03*
X036401Y023325D03*
X034761Y016745D03*
X038601Y016145D03*
X041241Y015225D03*
X036721Y011905D03*
X037721Y011245D03*
X037821Y009945D03*
X043741Y009945D03*
X045341Y009945D03*
X056021Y015765D03*
X053981Y022245D03*
X025441Y014885D03*
X020261Y016445D03*
X018261Y012765D03*
X016441Y012765D03*
X014461Y011445D03*
X015241Y010665D03*
X013181Y009725D03*
X012341Y009725D03*
X012341Y013405D03*
X011421Y013365D03*
X012661Y016865D03*
X008241Y016785D03*
X006461Y016785D03*
X010141Y021185D03*
X015921Y020285D03*
X022061Y027745D03*
X008381Y028685D03*
X007541Y028525D03*
X004621Y028585D03*
D22*
X023821Y014425D03*
X033041Y015365D03*
X047101Y023645D03*
X058141Y022925D03*
X060101Y023145D03*
X023781Y006005D03*
M02*
