G75*
%MOIN*%
%OFA0B0*%
%FSLAX24Y24*%
%IPPOS*%
%LPD*%
%AMOC8*
5,1,8,0,0,1.08239X$1,22.5*
%
%ADD10C,0.0000*%
%ADD11R,0.0513X0.0474*%
%ADD12R,0.0395X0.0552*%
%ADD13R,0.0880X0.0340*%
%ADD14R,0.0552X0.0297*%
%ADD15R,0.1182X0.0867*%
%ADD16R,0.1655X0.0356*%
%ADD17R,0.1655X0.0552*%
%ADD18C,0.0513*%
%ADD19C,0.0710*%
%ADD20R,0.1680X0.1680*%
%ADD21R,0.2080X0.2080*%
%ADD22C,0.0050*%
%ADD23C,0.1380*%
%ADD24C,0.0820*%
%ADD25R,0.0474X0.0513*%
%ADD26OC8,0.0640*%
%ADD27C,0.0720*%
%ADD28C,0.1780*%
%ADD29R,0.0630X0.0217*%
%ADD30R,0.0395X0.0395*%
%ADD31R,0.0631X0.0474*%
%ADD32C,0.0347*%
%ADD33R,0.0560X0.0325*%
%ADD34C,0.0740*%
%ADD35R,0.0631X0.0710*%
%ADD36R,0.0289X0.0860*%
%ADD37R,0.0671X0.0198*%
%ADD38R,0.0198X0.0671*%
%ADD39R,0.0789X0.0631*%
%ADD40R,0.0907X0.2285*%
%ADD41R,0.2285X0.0907*%
%ADD42R,0.0198X0.0356*%
%ADD43R,0.0340X0.0880*%
%ADD44R,0.0880X0.0880*%
%ADD45C,0.0880*%
%ADD46R,0.0356X0.0198*%
%ADD47OC8,0.0820*%
%ADD48C,0.0674*%
%ADD49C,0.0595*%
D10*
X002006Y000205D02*
X064256Y000205D01*
X064321Y000207D01*
X064387Y000213D01*
X064451Y000222D01*
X064515Y000235D01*
X064579Y000252D01*
X064641Y000273D01*
X064702Y000297D01*
X064761Y000325D01*
X064819Y000356D01*
X064874Y000390D01*
X064928Y000428D01*
X064979Y000468D01*
X065028Y000512D01*
X065074Y000558D01*
X065118Y000607D01*
X065158Y000658D01*
X065196Y000712D01*
X065230Y000768D01*
X065261Y000825D01*
X065289Y000884D01*
X065313Y000945D01*
X065334Y001007D01*
X065351Y001071D01*
X065364Y001135D01*
X065373Y001199D01*
X065379Y001265D01*
X065381Y001330D01*
X065381Y037330D01*
X065379Y037395D01*
X065373Y037461D01*
X065364Y037525D01*
X065351Y037589D01*
X065334Y037653D01*
X065313Y037715D01*
X065289Y037776D01*
X065261Y037835D01*
X065230Y037893D01*
X065196Y037948D01*
X065158Y038002D01*
X065118Y038053D01*
X065074Y038102D01*
X065028Y038148D01*
X064979Y038192D01*
X064928Y038232D01*
X064874Y038270D01*
X064819Y038304D01*
X064761Y038335D01*
X064702Y038363D01*
X064641Y038387D01*
X064579Y038408D01*
X064515Y038425D01*
X064451Y038438D01*
X064387Y038447D01*
X064321Y038453D01*
X064256Y038455D01*
X002006Y038455D01*
X001941Y038453D01*
X001875Y038447D01*
X001811Y038438D01*
X001747Y038425D01*
X001683Y038408D01*
X001621Y038387D01*
X001560Y038363D01*
X001501Y038335D01*
X001444Y038304D01*
X001388Y038270D01*
X001334Y038232D01*
X001283Y038192D01*
X001234Y038148D01*
X001188Y038102D01*
X001144Y038053D01*
X001104Y038002D01*
X001066Y037948D01*
X001032Y037893D01*
X001001Y037835D01*
X000973Y037776D01*
X000949Y037715D01*
X000928Y037653D01*
X000911Y037589D01*
X000898Y037525D01*
X000889Y037461D01*
X000883Y037395D01*
X000881Y037330D01*
X000881Y001326D01*
X000883Y001261D01*
X000889Y001196D01*
X000898Y001131D01*
X000912Y001067D01*
X000929Y001004D01*
X000949Y000942D01*
X000974Y000881D01*
X001001Y000822D01*
X001032Y000765D01*
X001067Y000709D01*
X001104Y000656D01*
X001145Y000605D01*
X001189Y000556D01*
X001235Y000510D01*
X001284Y000466D01*
X001335Y000426D01*
X001389Y000389D01*
X001444Y000354D01*
X001502Y000324D01*
X001561Y000296D01*
X001622Y000272D01*
X001684Y000252D01*
X001747Y000235D01*
X001811Y000222D01*
X001876Y000212D01*
X001941Y000207D01*
X002006Y000205D01*
X001731Y001705D02*
X001733Y001755D01*
X001739Y001805D01*
X001749Y001855D01*
X001762Y001903D01*
X001779Y001951D01*
X001800Y001997D01*
X001824Y002041D01*
X001852Y002083D01*
X001883Y002123D01*
X001917Y002160D01*
X001954Y002195D01*
X001993Y002226D01*
X002034Y002255D01*
X002078Y002280D01*
X002124Y002302D01*
X002171Y002320D01*
X002219Y002334D01*
X002268Y002345D01*
X002318Y002352D01*
X002368Y002355D01*
X002419Y002354D01*
X002469Y002349D01*
X002519Y002340D01*
X002567Y002328D01*
X002615Y002311D01*
X002661Y002291D01*
X002706Y002268D01*
X002749Y002241D01*
X002789Y002211D01*
X002827Y002178D01*
X002862Y002142D01*
X002895Y002103D01*
X002924Y002062D01*
X002950Y002019D01*
X002973Y001974D01*
X002992Y001927D01*
X003007Y001879D01*
X003019Y001830D01*
X003027Y001780D01*
X003031Y001730D01*
X003031Y001680D01*
X003027Y001630D01*
X003019Y001580D01*
X003007Y001531D01*
X002992Y001483D01*
X002973Y001436D01*
X002950Y001391D01*
X002924Y001348D01*
X002895Y001307D01*
X002862Y001268D01*
X002827Y001232D01*
X002789Y001199D01*
X002749Y001169D01*
X002706Y001142D01*
X002661Y001119D01*
X002615Y001099D01*
X002567Y001082D01*
X002519Y001070D01*
X002469Y001061D01*
X002419Y001056D01*
X002368Y001055D01*
X002318Y001058D01*
X002268Y001065D01*
X002219Y001076D01*
X002171Y001090D01*
X002124Y001108D01*
X002078Y001130D01*
X002034Y001155D01*
X001993Y001184D01*
X001954Y001215D01*
X001917Y001250D01*
X001883Y001287D01*
X001852Y001327D01*
X001824Y001369D01*
X001800Y001413D01*
X001779Y001459D01*
X001762Y001507D01*
X001749Y001555D01*
X001739Y001605D01*
X001733Y001655D01*
X001731Y001705D01*
X055491Y011263D02*
X055493Y011292D01*
X055499Y011320D01*
X055508Y011348D01*
X055521Y011374D01*
X055538Y011397D01*
X055557Y011419D01*
X055579Y011438D01*
X055604Y011453D01*
X055630Y011466D01*
X055658Y011474D01*
X055686Y011479D01*
X055715Y011480D01*
X055744Y011477D01*
X055772Y011470D01*
X055799Y011460D01*
X055825Y011446D01*
X055848Y011429D01*
X055869Y011409D01*
X055887Y011386D01*
X055902Y011361D01*
X055913Y011334D01*
X055921Y011306D01*
X055925Y011277D01*
X055925Y011249D01*
X055921Y011220D01*
X055913Y011192D01*
X055902Y011165D01*
X055887Y011140D01*
X055869Y011117D01*
X055848Y011097D01*
X055825Y011080D01*
X055799Y011066D01*
X055772Y011056D01*
X055744Y011049D01*
X055715Y011046D01*
X055686Y011047D01*
X055658Y011052D01*
X055630Y011060D01*
X055604Y011073D01*
X055579Y011088D01*
X055557Y011107D01*
X055538Y011129D01*
X055521Y011152D01*
X055508Y011178D01*
X055499Y011206D01*
X055493Y011234D01*
X055491Y011263D01*
X055393Y019570D02*
X055395Y019605D01*
X055401Y019640D01*
X055411Y019674D01*
X055424Y019707D01*
X055441Y019738D01*
X055462Y019766D01*
X055485Y019793D01*
X055512Y019816D01*
X055540Y019837D01*
X055571Y019854D01*
X055604Y019867D01*
X055638Y019877D01*
X055673Y019883D01*
X055708Y019885D01*
X055743Y019883D01*
X055778Y019877D01*
X055812Y019867D01*
X055845Y019854D01*
X055876Y019837D01*
X055904Y019816D01*
X055931Y019793D01*
X055954Y019766D01*
X055975Y019738D01*
X055992Y019707D01*
X056005Y019674D01*
X056015Y019640D01*
X056021Y019605D01*
X056023Y019570D01*
X056021Y019535D01*
X056015Y019500D01*
X056005Y019466D01*
X055992Y019433D01*
X055975Y019402D01*
X055954Y019374D01*
X055931Y019347D01*
X055904Y019324D01*
X055876Y019303D01*
X055845Y019286D01*
X055812Y019273D01*
X055778Y019263D01*
X055743Y019257D01*
X055708Y019255D01*
X055673Y019257D01*
X055638Y019263D01*
X055604Y019273D01*
X055571Y019286D01*
X055540Y019303D01*
X055512Y019324D01*
X055485Y019347D01*
X055462Y019374D01*
X055441Y019402D01*
X055424Y019433D01*
X055411Y019466D01*
X055401Y019500D01*
X055395Y019535D01*
X055393Y019570D01*
X063231Y032705D02*
X063233Y032755D01*
X063239Y032805D01*
X063249Y032855D01*
X063262Y032903D01*
X063279Y032951D01*
X063300Y032997D01*
X063324Y033041D01*
X063352Y033083D01*
X063383Y033123D01*
X063417Y033160D01*
X063454Y033195D01*
X063493Y033226D01*
X063534Y033255D01*
X063578Y033280D01*
X063624Y033302D01*
X063671Y033320D01*
X063719Y033334D01*
X063768Y033345D01*
X063818Y033352D01*
X063868Y033355D01*
X063919Y033354D01*
X063969Y033349D01*
X064019Y033340D01*
X064067Y033328D01*
X064115Y033311D01*
X064161Y033291D01*
X064206Y033268D01*
X064249Y033241D01*
X064289Y033211D01*
X064327Y033178D01*
X064362Y033142D01*
X064395Y033103D01*
X064424Y033062D01*
X064450Y033019D01*
X064473Y032974D01*
X064492Y032927D01*
X064507Y032879D01*
X064519Y032830D01*
X064527Y032780D01*
X064531Y032730D01*
X064531Y032680D01*
X064527Y032630D01*
X064519Y032580D01*
X064507Y032531D01*
X064492Y032483D01*
X064473Y032436D01*
X064450Y032391D01*
X064424Y032348D01*
X064395Y032307D01*
X064362Y032268D01*
X064327Y032232D01*
X064289Y032199D01*
X064249Y032169D01*
X064206Y032142D01*
X064161Y032119D01*
X064115Y032099D01*
X064067Y032082D01*
X064019Y032070D01*
X063969Y032061D01*
X063919Y032056D01*
X063868Y032055D01*
X063818Y032058D01*
X063768Y032065D01*
X063719Y032076D01*
X063671Y032090D01*
X063624Y032108D01*
X063578Y032130D01*
X063534Y032155D01*
X063493Y032184D01*
X063454Y032215D01*
X063417Y032250D01*
X063383Y032287D01*
X063352Y032327D01*
X063324Y032369D01*
X063300Y032413D01*
X063279Y032459D01*
X063262Y032507D01*
X063249Y032555D01*
X063239Y032605D01*
X063233Y032655D01*
X063231Y032705D01*
X063231Y001705D02*
X063233Y001755D01*
X063239Y001805D01*
X063249Y001855D01*
X063262Y001903D01*
X063279Y001951D01*
X063300Y001997D01*
X063324Y002041D01*
X063352Y002083D01*
X063383Y002123D01*
X063417Y002160D01*
X063454Y002195D01*
X063493Y002226D01*
X063534Y002255D01*
X063578Y002280D01*
X063624Y002302D01*
X063671Y002320D01*
X063719Y002334D01*
X063768Y002345D01*
X063818Y002352D01*
X063868Y002355D01*
X063919Y002354D01*
X063969Y002349D01*
X064019Y002340D01*
X064067Y002328D01*
X064115Y002311D01*
X064161Y002291D01*
X064206Y002268D01*
X064249Y002241D01*
X064289Y002211D01*
X064327Y002178D01*
X064362Y002142D01*
X064395Y002103D01*
X064424Y002062D01*
X064450Y002019D01*
X064473Y001974D01*
X064492Y001927D01*
X064507Y001879D01*
X064519Y001830D01*
X064527Y001780D01*
X064531Y001730D01*
X064531Y001680D01*
X064527Y001630D01*
X064519Y001580D01*
X064507Y001531D01*
X064492Y001483D01*
X064473Y001436D01*
X064450Y001391D01*
X064424Y001348D01*
X064395Y001307D01*
X064362Y001268D01*
X064327Y001232D01*
X064289Y001199D01*
X064249Y001169D01*
X064206Y001142D01*
X064161Y001119D01*
X064115Y001099D01*
X064067Y001082D01*
X064019Y001070D01*
X063969Y001061D01*
X063919Y001056D01*
X063868Y001055D01*
X063818Y001058D01*
X063768Y001065D01*
X063719Y001076D01*
X063671Y001090D01*
X063624Y001108D01*
X063578Y001130D01*
X063534Y001155D01*
X063493Y001184D01*
X063454Y001215D01*
X063417Y001250D01*
X063383Y001287D01*
X063352Y001327D01*
X063324Y001369D01*
X063300Y001413D01*
X063279Y001459D01*
X063262Y001507D01*
X063249Y001555D01*
X063239Y001605D01*
X063233Y001655D01*
X063231Y001705D01*
X001731Y036830D02*
X001733Y036880D01*
X001739Y036930D01*
X001749Y036980D01*
X001762Y037028D01*
X001779Y037076D01*
X001800Y037122D01*
X001824Y037166D01*
X001852Y037208D01*
X001883Y037248D01*
X001917Y037285D01*
X001954Y037320D01*
X001993Y037351D01*
X002034Y037380D01*
X002078Y037405D01*
X002124Y037427D01*
X002171Y037445D01*
X002219Y037459D01*
X002268Y037470D01*
X002318Y037477D01*
X002368Y037480D01*
X002419Y037479D01*
X002469Y037474D01*
X002519Y037465D01*
X002567Y037453D01*
X002615Y037436D01*
X002661Y037416D01*
X002706Y037393D01*
X002749Y037366D01*
X002789Y037336D01*
X002827Y037303D01*
X002862Y037267D01*
X002895Y037228D01*
X002924Y037187D01*
X002950Y037144D01*
X002973Y037099D01*
X002992Y037052D01*
X003007Y037004D01*
X003019Y036955D01*
X003027Y036905D01*
X003031Y036855D01*
X003031Y036805D01*
X003027Y036755D01*
X003019Y036705D01*
X003007Y036656D01*
X002992Y036608D01*
X002973Y036561D01*
X002950Y036516D01*
X002924Y036473D01*
X002895Y036432D01*
X002862Y036393D01*
X002827Y036357D01*
X002789Y036324D01*
X002749Y036294D01*
X002706Y036267D01*
X002661Y036244D01*
X002615Y036224D01*
X002567Y036207D01*
X002519Y036195D01*
X002469Y036186D01*
X002419Y036181D01*
X002368Y036180D01*
X002318Y036183D01*
X002268Y036190D01*
X002219Y036201D01*
X002171Y036215D01*
X002124Y036233D01*
X002078Y036255D01*
X002034Y036280D01*
X001993Y036309D01*
X001954Y036340D01*
X001917Y036375D01*
X001883Y036412D01*
X001852Y036452D01*
X001824Y036494D01*
X001800Y036538D01*
X001779Y036584D01*
X001762Y036632D01*
X001749Y036680D01*
X001739Y036730D01*
X001733Y036780D01*
X001731Y036830D01*
D11*
X017546Y023205D03*
X018216Y023205D03*
X024421Y013830D03*
X025091Y013830D03*
X025091Y011830D03*
X024421Y011830D03*
X018756Y010415D03*
X018006Y010415D03*
X018006Y009745D03*
X018756Y009745D03*
X013881Y009495D03*
X013881Y010165D03*
X013881Y011120D03*
X013881Y011790D03*
X036796Y013580D03*
X037466Y013580D03*
X038006Y015995D03*
X038006Y016665D03*
X036506Y016665D03*
X036506Y015995D03*
X037256Y021745D03*
X037256Y022415D03*
X037256Y022995D03*
X037256Y023665D03*
X055506Y028120D03*
X055506Y028790D03*
X059681Y024299D03*
X059681Y023629D03*
X057165Y021946D03*
X056496Y021946D03*
X047841Y010955D03*
X047171Y010955D03*
X043131Y009790D03*
X043131Y009120D03*
X040131Y009165D03*
X040131Y008495D03*
D12*
X015985Y019580D03*
X015277Y019580D03*
D13*
X046259Y015535D03*
X046259Y015035D03*
X046259Y014535D03*
X046259Y014035D03*
X046259Y013535D03*
X046259Y013035D03*
X046259Y012535D03*
X046259Y012035D03*
X048679Y012035D03*
X048679Y012535D03*
X048679Y013035D03*
X048679Y013535D03*
X048679Y014035D03*
X048679Y014535D03*
X048679Y015035D03*
X048679Y015535D03*
D14*
X048018Y009954D03*
X048018Y009206D03*
X046994Y009206D03*
X046994Y009580D03*
X046994Y009954D03*
X009518Y021081D03*
X009518Y021455D03*
X009518Y021829D03*
X008494Y021829D03*
X008494Y021081D03*
D15*
X055235Y020436D03*
X063464Y021381D03*
X063464Y010397D03*
X055275Y010358D03*
D16*
X054527Y011027D03*
X054527Y011499D03*
X054527Y012011D03*
D17*
X054527Y012641D03*
X054527Y013625D03*
X054527Y014610D03*
X054527Y015594D03*
X054527Y016578D03*
X054527Y017562D03*
X054527Y018547D03*
X054527Y019531D03*
D18*
X055708Y011263D03*
D19*
X055708Y019570D03*
D20*
X005381Y015705D03*
D21*
X005381Y010705D03*
X005381Y020705D03*
D22*
X005381Y019248D02*
X005778Y019226D01*
X006169Y019159D01*
X006551Y019049D01*
X006918Y018897D01*
X007266Y018705D01*
X007590Y018475D01*
X007886Y018210D01*
X008151Y017914D01*
X008381Y017590D01*
X008573Y017242D01*
X008725Y016875D01*
X008835Y016493D01*
X008902Y016102D01*
X008924Y015705D01*
X008902Y015308D01*
X008835Y014917D01*
X008725Y014535D01*
X008573Y014168D01*
X008381Y013820D01*
X008151Y013496D01*
X007886Y013200D01*
X007590Y012935D01*
X007266Y012705D01*
X006918Y012513D01*
X006551Y012361D01*
X006169Y012251D01*
X005778Y012184D01*
X005381Y012162D01*
X004984Y012184D01*
X004592Y012251D01*
X004211Y012361D01*
X003844Y012513D01*
X003496Y012705D01*
X003172Y012935D01*
X002875Y013200D01*
X002611Y013496D01*
X002381Y013820D01*
X002188Y014168D01*
X002036Y014535D01*
X001926Y014917D01*
X001860Y015308D01*
X001838Y015705D01*
X001860Y016102D01*
X001926Y016493D01*
X002036Y016875D01*
X002188Y017242D01*
X002381Y017590D01*
X002611Y017914D01*
X002875Y018210D01*
X003172Y018475D01*
X003496Y018705D01*
X003844Y018897D01*
X004211Y019049D01*
X004592Y019159D01*
X004984Y019226D01*
X005381Y019248D01*
X004932Y019217D02*
X005830Y019217D01*
X006116Y019169D02*
X004646Y019169D01*
X004456Y019120D02*
X006306Y019120D01*
X006474Y019072D02*
X004287Y019072D01*
X004147Y019023D02*
X006615Y019023D01*
X006732Y018975D02*
X004030Y018975D01*
X003913Y018926D02*
X006849Y018926D01*
X006954Y018878D02*
X003808Y018878D01*
X003720Y018829D02*
X007042Y018829D01*
X007130Y018781D02*
X003632Y018781D01*
X003544Y018732D02*
X007217Y018732D01*
X007297Y018684D02*
X003465Y018684D01*
X003397Y018635D02*
X007365Y018635D01*
X007433Y018587D02*
X003329Y018587D01*
X003260Y018538D02*
X007502Y018538D01*
X007570Y018490D02*
X003192Y018490D01*
X003133Y018441D02*
X007628Y018441D01*
X007683Y018393D02*
X003079Y018393D01*
X003025Y018344D02*
X007737Y018344D01*
X007791Y018296D02*
X002971Y018296D01*
X002916Y018247D02*
X007845Y018247D01*
X007897Y018199D02*
X002865Y018199D01*
X002821Y018150D02*
X007940Y018150D01*
X007984Y018102D02*
X002778Y018102D01*
X002735Y018053D02*
X008027Y018053D01*
X008070Y018005D02*
X002691Y018005D01*
X002648Y017956D02*
X008114Y017956D01*
X008156Y017908D02*
X002606Y017908D01*
X002572Y017859D02*
X008190Y017859D01*
X008225Y017811D02*
X002537Y017811D01*
X002503Y017762D02*
X008259Y017762D01*
X008294Y017714D02*
X002468Y017714D01*
X002434Y017665D02*
X008328Y017665D01*
X008362Y017617D02*
X002399Y017617D01*
X002369Y017568D02*
X008393Y017568D01*
X008420Y017520D02*
X002342Y017520D01*
X002315Y017471D02*
X008447Y017471D01*
X008474Y017423D02*
X002288Y017423D01*
X002261Y017374D02*
X008501Y017374D01*
X008527Y017326D02*
X002234Y017326D01*
X002208Y017277D02*
X008554Y017277D01*
X008579Y017229D02*
X002183Y017229D01*
X002163Y017180D02*
X008599Y017180D01*
X008619Y017132D02*
X002143Y017132D01*
X002123Y017083D02*
X008639Y017083D01*
X008659Y017035D02*
X002102Y017035D01*
X002082Y016986D02*
X008679Y016986D01*
X008700Y016938D02*
X002062Y016938D01*
X002042Y016889D02*
X008720Y016889D01*
X008735Y016841D02*
X002026Y016841D01*
X002012Y016792D02*
X008749Y016792D01*
X008763Y016744D02*
X001998Y016744D01*
X001985Y016695D02*
X008777Y016695D01*
X008791Y016647D02*
X001971Y016647D01*
X001957Y016598D02*
X008805Y016598D01*
X008819Y016550D02*
X001943Y016550D01*
X001929Y016501D02*
X008833Y016501D01*
X008842Y016453D02*
X001919Y016453D01*
X001911Y016404D02*
X008851Y016404D01*
X008859Y016356D02*
X001903Y016356D01*
X001895Y016307D02*
X008867Y016307D01*
X008875Y016259D02*
X001887Y016259D01*
X001878Y016210D02*
X008884Y016210D01*
X008892Y016162D02*
X001870Y016162D01*
X001862Y016113D02*
X008900Y016113D01*
X008904Y016065D02*
X001858Y016065D01*
X001855Y016016D02*
X008907Y016016D01*
X008909Y015968D02*
X001852Y015968D01*
X001850Y015919D02*
X008912Y015919D01*
X008915Y015871D02*
X001847Y015871D01*
X001844Y015822D02*
X008918Y015822D01*
X008920Y015774D02*
X001841Y015774D01*
X001839Y015725D02*
X008923Y015725D01*
X008923Y015677D02*
X001839Y015677D01*
X001842Y015628D02*
X008920Y015628D01*
X008917Y015580D02*
X001845Y015580D01*
X001847Y015531D02*
X008914Y015531D01*
X008912Y015483D02*
X001850Y015483D01*
X001853Y015434D02*
X008909Y015434D01*
X008906Y015386D02*
X001856Y015386D01*
X001858Y015337D02*
X008904Y015337D01*
X008899Y015289D02*
X001863Y015289D01*
X001871Y015240D02*
X008890Y015240D01*
X008882Y015192D02*
X001880Y015192D01*
X001888Y015143D02*
X008874Y015143D01*
X008866Y015095D02*
X001896Y015095D01*
X001904Y015046D02*
X008857Y015046D01*
X008849Y014998D02*
X001913Y014998D01*
X001921Y014949D02*
X008841Y014949D01*
X008831Y014901D02*
X001931Y014901D01*
X001945Y014852D02*
X008817Y014852D01*
X008803Y014804D02*
X001959Y014804D01*
X001973Y014755D02*
X008789Y014755D01*
X008775Y014707D02*
X001987Y014707D01*
X002001Y014658D02*
X008761Y014658D01*
X008747Y014610D02*
X002015Y014610D01*
X002029Y014561D02*
X008733Y014561D01*
X008716Y014513D02*
X002046Y014513D01*
X002066Y014464D02*
X008696Y014464D01*
X008676Y014416D02*
X002086Y014416D01*
X002106Y014367D02*
X008656Y014367D01*
X008636Y014319D02*
X002126Y014319D01*
X002146Y014270D02*
X008616Y014270D01*
X008596Y014222D02*
X002166Y014222D01*
X002186Y014173D02*
X008576Y014173D01*
X008550Y014125D02*
X002212Y014125D01*
X002239Y014076D02*
X008523Y014076D01*
X008496Y014028D02*
X002266Y014028D01*
X002293Y013979D02*
X008469Y013979D01*
X008442Y013931D02*
X002320Y013931D01*
X002346Y013882D02*
X008415Y013882D01*
X008389Y013834D02*
X002373Y013834D01*
X002405Y013785D02*
X008356Y013785D01*
X008322Y013737D02*
X002440Y013737D01*
X002474Y013688D02*
X008288Y013688D01*
X008253Y013640D02*
X002509Y013640D01*
X002543Y013591D02*
X008219Y013591D01*
X008184Y013543D02*
X002577Y013543D01*
X002612Y013494D02*
X008150Y013494D01*
X008106Y013446D02*
X002656Y013446D01*
X002699Y013397D02*
X008063Y013397D01*
X008020Y013349D02*
X002742Y013349D01*
X002786Y013300D02*
X007976Y013300D01*
X007933Y013252D02*
X002829Y013252D01*
X002872Y013203D02*
X007890Y013203D01*
X007836Y013155D02*
X002926Y013155D01*
X002980Y013106D02*
X007782Y013106D01*
X007728Y013058D02*
X003034Y013058D01*
X003089Y013009D02*
X007673Y013009D01*
X007619Y012961D02*
X003143Y012961D01*
X003204Y012912D02*
X007558Y012912D01*
X007490Y012864D02*
X003272Y012864D01*
X003340Y012815D02*
X007421Y012815D01*
X007353Y012767D02*
X003409Y012767D01*
X003477Y012718D02*
X007285Y012718D01*
X007202Y012670D02*
X003560Y012670D01*
X003647Y012621D02*
X007115Y012621D01*
X007027Y012573D02*
X003735Y012573D01*
X003823Y012524D02*
X006939Y012524D01*
X006829Y012476D02*
X003933Y012476D01*
X004050Y012427D02*
X006712Y012427D01*
X006595Y012379D02*
X004167Y012379D01*
X004316Y012330D02*
X006445Y012330D01*
X006277Y012282D02*
X004485Y012282D01*
X004695Y012233D02*
X006067Y012233D01*
X005781Y012185D02*
X004981Y012185D01*
D23*
X002381Y001705D03*
X062942Y022635D03*
X062942Y027375D03*
X063881Y032705D03*
X063881Y001705D03*
X002381Y036830D03*
D24*
X004500Y026080D03*
X005500Y026080D03*
X006500Y026080D03*
X007500Y026080D03*
X008500Y026080D03*
X009500Y026080D03*
X010500Y026080D03*
X011500Y026080D03*
X012500Y026080D03*
X013500Y026080D03*
X015000Y026080D03*
X016000Y026080D03*
X017000Y026080D03*
X018000Y026080D03*
X019000Y026080D03*
X020000Y026080D03*
X021000Y026080D03*
X022000Y026080D03*
X033756Y021824D03*
X033756Y020824D03*
X033756Y019824D03*
X033756Y018824D03*
X033756Y017824D03*
X033756Y016824D03*
X033756Y015824D03*
X033756Y014824D03*
X033756Y012824D03*
X033756Y011824D03*
X033756Y010824D03*
X033756Y009824D03*
X033756Y008824D03*
X033756Y007824D03*
X022000Y007080D03*
X021000Y007080D03*
X020000Y007080D03*
X019000Y007080D03*
X018000Y007080D03*
X017000Y007080D03*
X015000Y007080D03*
X014000Y007080D03*
X013000Y007080D03*
X012000Y007080D03*
X011000Y007080D03*
X010000Y007080D03*
X009000Y007080D03*
X008000Y007080D03*
X052756Y007824D03*
X052756Y008824D03*
X052756Y009824D03*
X052756Y010824D03*
X052756Y011824D03*
X052756Y012824D03*
X052756Y013824D03*
X052756Y014824D03*
X052756Y016324D03*
X052756Y017324D03*
X052756Y018324D03*
X052756Y019324D03*
X052756Y020324D03*
X052756Y021324D03*
X052756Y022324D03*
X052756Y023324D03*
X052756Y024324D03*
X052756Y025324D03*
X057506Y028080D03*
X057506Y029080D03*
X058218Y003640D03*
X059998Y003640D03*
X059998Y001080D03*
X058218Y001080D03*
D25*
X058256Y008870D03*
X058256Y009540D03*
X043131Y008040D03*
X043131Y007370D03*
X044938Y020958D03*
X044938Y021627D03*
X059537Y029630D03*
X060207Y029630D03*
X060207Y030755D03*
X059537Y030755D03*
X016716Y010205D03*
X016046Y010205D03*
X009006Y011495D03*
X009006Y012165D03*
X010796Y020205D03*
X011466Y020205D03*
X011466Y021080D03*
X010796Y021080D03*
D26*
X022881Y027830D03*
X023881Y027830D03*
X024881Y027830D03*
X025881Y027830D03*
X026881Y027830D03*
X027881Y027830D03*
X028881Y027830D03*
X029881Y027830D03*
X030881Y027830D03*
X031881Y027830D03*
X032881Y027830D03*
X033881Y027830D03*
X034881Y027830D03*
X035881Y027830D03*
X036881Y027830D03*
X036881Y031830D03*
X035881Y031830D03*
X034881Y031830D03*
X033881Y031830D03*
X032881Y031830D03*
X031881Y031830D03*
X030881Y031830D03*
X029881Y031830D03*
X028881Y031830D03*
X027881Y031830D03*
X026881Y031830D03*
X025881Y031830D03*
X024881Y031830D03*
X023881Y031830D03*
X022881Y031830D03*
X052692Y004507D03*
X055052Y004507D03*
X055052Y002547D03*
X052692Y002547D03*
D27*
X002631Y032330D03*
X001631Y032330D03*
X001631Y033330D03*
X002631Y033330D03*
X002631Y034330D03*
X001631Y034330D03*
D28*
X061442Y005614D03*
X063804Y005614D03*
X062623Y007464D03*
D29*
X049013Y020305D03*
X049013Y020561D03*
X049013Y020817D03*
X049013Y021073D03*
X049013Y021329D03*
X049013Y021585D03*
X049013Y021841D03*
X049013Y022097D03*
X049013Y022353D03*
X049013Y022609D03*
X049013Y022864D03*
X049013Y023120D03*
X049013Y023376D03*
X049013Y023632D03*
X046134Y023632D03*
X046134Y023376D03*
X046134Y023120D03*
X046134Y022864D03*
X046134Y022609D03*
X046134Y022353D03*
X046134Y022097D03*
X046134Y021841D03*
X046134Y021585D03*
X046134Y021329D03*
X046134Y021073D03*
X046134Y020817D03*
X046134Y020561D03*
X046134Y020305D03*
D30*
X060952Y029630D03*
X061542Y029630D03*
X061542Y030755D03*
X060952Y030755D03*
D31*
X058707Y025529D03*
X059573Y025155D03*
X058707Y024781D03*
X058073Y024279D03*
X058073Y023531D03*
X057207Y023905D03*
D32*
X058728Y022088D02*
X058728Y021922D01*
X058728Y022088D02*
X058816Y022088D01*
X058816Y021922D01*
X058728Y021922D01*
X059428Y021922D02*
X059428Y022088D01*
X059516Y022088D01*
X059516Y021922D01*
X059428Y021922D01*
X059548Y007474D02*
X059714Y007474D01*
X059714Y007386D01*
X059548Y007386D01*
X059548Y007474D01*
X059548Y006774D02*
X059714Y006774D01*
X059714Y006686D01*
X059548Y006686D01*
X059548Y006774D01*
X012062Y014622D02*
X012062Y014788D01*
X012150Y014788D01*
X012150Y014622D01*
X012062Y014622D01*
X011362Y014622D02*
X011362Y014788D01*
X011450Y014788D01*
X011450Y014622D01*
X011362Y014622D01*
X011450Y015372D02*
X011450Y015538D01*
X011450Y015372D02*
X011362Y015372D01*
X011362Y015538D01*
X011450Y015538D01*
X012150Y015538D02*
X012150Y015372D01*
X012062Y015372D01*
X012062Y015538D01*
X012150Y015538D01*
X012150Y016122D02*
X012150Y016288D01*
X012150Y016122D02*
X012062Y016122D01*
X012062Y016288D01*
X012150Y016288D01*
X012150Y016872D02*
X012150Y017038D01*
X012150Y016872D02*
X012062Y016872D01*
X012062Y017038D01*
X012150Y017038D01*
X012150Y017622D02*
X012150Y017788D01*
X012150Y017622D02*
X012062Y017622D01*
X012062Y017788D01*
X012150Y017788D01*
X011450Y017788D02*
X011450Y017622D01*
X011362Y017622D01*
X011362Y017788D01*
X011450Y017788D01*
X011450Y017038D02*
X011450Y016872D01*
X011362Y016872D01*
X011362Y017038D01*
X011450Y017038D01*
X011450Y016288D02*
X011450Y016122D01*
X011362Y016122D01*
X011362Y016288D01*
X011450Y016288D01*
D33*
X060365Y009579D03*
X060365Y009205D03*
X060365Y008831D03*
X061397Y008831D03*
X061397Y009205D03*
X061397Y009579D03*
D34*
X061092Y024513D03*
X061872Y024513D03*
X061872Y025497D03*
X061092Y025497D03*
D35*
X059382Y026696D03*
X058280Y026696D03*
X008432Y010330D03*
X007330Y010330D03*
D36*
X015756Y011986D03*
X016256Y011986D03*
X016756Y011986D03*
X017256Y011986D03*
X017756Y011986D03*
X018256Y011986D03*
X018756Y011986D03*
X019256Y011986D03*
X019756Y011986D03*
X020256Y011986D03*
X020256Y015674D03*
X019756Y015674D03*
X019256Y015674D03*
X018756Y015674D03*
X018256Y015674D03*
X017756Y015674D03*
X017256Y015674D03*
X016756Y015674D03*
X016256Y015674D03*
X015756Y015674D03*
D37*
X023981Y017968D03*
X023981Y018165D03*
X023981Y018361D03*
X023981Y018558D03*
X023981Y018755D03*
X023981Y018952D03*
X023981Y019149D03*
X023981Y019346D03*
X023981Y019543D03*
X023981Y019739D03*
X023981Y019936D03*
X023981Y020133D03*
X023981Y020330D03*
X023981Y020527D03*
X023981Y020724D03*
X023981Y020921D03*
X023981Y021117D03*
X023981Y021314D03*
X023981Y021511D03*
X023981Y021708D03*
X023981Y021905D03*
X023981Y022102D03*
X023981Y022299D03*
X023981Y022495D03*
X023981Y022692D03*
X030281Y022692D03*
X030281Y022495D03*
X030281Y022299D03*
X030281Y022102D03*
X030281Y021905D03*
X030281Y021708D03*
X030281Y021511D03*
X030281Y021314D03*
X030281Y021117D03*
X030281Y020921D03*
X030281Y020724D03*
X030281Y020527D03*
X030281Y020330D03*
X030281Y020133D03*
X030281Y019936D03*
X030281Y019739D03*
X030281Y019543D03*
X030281Y019346D03*
X030281Y019149D03*
X030281Y018952D03*
X030281Y018755D03*
X030281Y018558D03*
X030281Y018361D03*
X030281Y018165D03*
X030281Y017968D03*
D38*
X029493Y017180D03*
X029296Y017180D03*
X029099Y017180D03*
X028903Y017180D03*
X028706Y017180D03*
X028509Y017180D03*
X028312Y017180D03*
X028115Y017180D03*
X027918Y017180D03*
X027721Y017180D03*
X027525Y017180D03*
X027328Y017180D03*
X027131Y017180D03*
X026934Y017180D03*
X026737Y017180D03*
X026540Y017180D03*
X026344Y017180D03*
X026147Y017180D03*
X025950Y017180D03*
X025753Y017180D03*
X025556Y017180D03*
X025359Y017180D03*
X025162Y017180D03*
X024966Y017180D03*
X024769Y017180D03*
X024769Y023480D03*
X024966Y023480D03*
X025162Y023480D03*
X025359Y023480D03*
X025556Y023480D03*
X025753Y023480D03*
X025950Y023480D03*
X026147Y023480D03*
X026344Y023480D03*
X026540Y023480D03*
X026737Y023480D03*
X026934Y023480D03*
X027131Y023480D03*
X027328Y023480D03*
X027525Y023480D03*
X027721Y023480D03*
X027918Y023480D03*
X028115Y023480D03*
X028312Y023480D03*
X028509Y023480D03*
X028706Y023480D03*
X028903Y023480D03*
X029099Y023480D03*
X029296Y023480D03*
X029493Y023480D03*
D39*
X038256Y022374D03*
X038256Y021036D03*
D40*
X026419Y014728D03*
X026419Y010987D03*
D41*
X025730Y012858D03*
D42*
X015262Y010145D03*
X015006Y010145D03*
X014750Y010145D03*
X014750Y009515D03*
X015006Y009515D03*
X015262Y009515D03*
X041375Y008020D03*
X041631Y008020D03*
X041887Y008020D03*
X041887Y007390D03*
X041631Y007390D03*
X041375Y007390D03*
D43*
X019757Y027735D03*
X019257Y027735D03*
X018757Y027735D03*
X018257Y027735D03*
X017757Y027735D03*
X017257Y027735D03*
X016757Y027735D03*
X016257Y027735D03*
X016257Y030155D03*
X016757Y030155D03*
X017257Y030155D03*
X017757Y030155D03*
X018257Y030155D03*
X018757Y030155D03*
X019257Y030155D03*
X019757Y030155D03*
X011883Y030155D03*
X011383Y030155D03*
X010883Y030155D03*
X010383Y030155D03*
X009883Y030155D03*
X009383Y030155D03*
X008883Y030155D03*
X008383Y030155D03*
X008383Y027735D03*
X008883Y027735D03*
X009383Y027735D03*
X009883Y027735D03*
X010383Y027735D03*
X010883Y027735D03*
X011383Y027735D03*
X011883Y027735D03*
D44*
X015645Y036957D03*
X026668Y036957D03*
X037692Y036957D03*
X048716Y036957D03*
X059739Y036957D03*
X004621Y036957D03*
X006393Y001705D03*
X017416Y001705D03*
X028440Y001705D03*
X039464Y001705D03*
D45*
X040842Y001705D03*
X042219Y001705D03*
X043597Y001705D03*
X044975Y001705D03*
X046353Y001705D03*
X047731Y001705D03*
X049109Y001705D03*
X038086Y001702D03*
X036708Y001702D03*
X035330Y001702D03*
X033952Y001702D03*
X032574Y001702D03*
X031196Y001702D03*
X029818Y001702D03*
X027062Y001705D03*
X025684Y001705D03*
X024306Y001705D03*
X022928Y001705D03*
X021550Y001705D03*
X020172Y001705D03*
X018794Y001705D03*
X016038Y001702D03*
X014660Y001702D03*
X013282Y001702D03*
X011905Y001702D03*
X010527Y001702D03*
X009149Y001702D03*
X007771Y001702D03*
X007377Y036960D03*
X005999Y036960D03*
X008755Y036960D03*
X010133Y036960D03*
X011511Y036960D03*
X012889Y036960D03*
X014267Y036960D03*
X017023Y036957D03*
X018401Y036957D03*
X019779Y036957D03*
X021156Y036957D03*
X022534Y036957D03*
X023912Y036957D03*
X025290Y036957D03*
X028046Y036960D03*
X029424Y036960D03*
X030802Y036960D03*
X032180Y036960D03*
X033558Y036960D03*
X034936Y036960D03*
X036314Y036960D03*
X039070Y036957D03*
X040448Y036957D03*
X041826Y036957D03*
X043204Y036957D03*
X044582Y036957D03*
X045960Y036957D03*
X047338Y036957D03*
X050094Y036957D03*
X051471Y036957D03*
X052849Y036957D03*
X054227Y036957D03*
X055605Y036957D03*
X056983Y036957D03*
X058361Y036957D03*
X061117Y036957D03*
X062495Y036957D03*
X063873Y036957D03*
D46*
X037446Y015086D03*
X037446Y014830D03*
X037446Y014574D03*
X036816Y014574D03*
X036816Y014830D03*
X036816Y015086D03*
D47*
X054356Y031645D03*
X054356Y032645D03*
X055356Y032645D03*
X056356Y032645D03*
X056356Y031645D03*
X055356Y031645D03*
X057356Y031645D03*
X058356Y031645D03*
X058356Y032645D03*
X057356Y032645D03*
D48*
X052621Y032645D03*
X036401Y023325D03*
X034761Y016745D03*
X038601Y016145D03*
X041241Y015225D03*
X036721Y011905D03*
X037721Y011245D03*
X037821Y009945D03*
X043741Y009945D03*
X045341Y009945D03*
X056021Y015765D03*
X053981Y022245D03*
X025441Y014885D03*
X020261Y016445D03*
X018261Y012765D03*
X016441Y012765D03*
X014461Y011445D03*
X015241Y010665D03*
X013181Y009725D03*
X012341Y009725D03*
X012341Y013405D03*
X011421Y013365D03*
X012661Y016865D03*
X008241Y016785D03*
X006461Y016785D03*
X010141Y021185D03*
X015921Y020285D03*
X022061Y027745D03*
X008381Y028685D03*
X007541Y028525D03*
X004621Y028585D03*
D49*
X023821Y014425D03*
X033041Y015365D03*
X047101Y023645D03*
X058141Y022925D03*
X060101Y023145D03*
X023781Y006005D03*
M02*
